<?xml version="1.0" encoding="utf-8"?>
<!-- Generator: Adobe Illustrator 22.0.1, SVG Export Plug-In . SVG Version: 6.00 Build 0)  -->
<svg version="1.1" id="Layer_1" xmlns="http://www.w3.org/2000/svg" xmlns:xlink="http://www.w3.org/1999/xlink" x="0px" y="0px"
	 viewBox="0 0 978 480.2" style="enable-background:new 0 0 978 480.2;" xml:space="preserve">
<style type="text/css">
	.st0{fill:#00577A;}
	.st1{fill:#BDCF00;}
</style>
<title>Nigeria-Logo</title>
<path class="st0" d="M152.3,117.9l3.5-19.7H71l0,0c-8.9,0-17.4,7.1-19.1,16L19.1,299.9l0,0c-1.7,9,4.2,16.3,13.2,16.3H125l3.4-19.6
	H48.9l14.7-83.3h64.6l3.4-19.3H67l13.4-76L152.3,117.9z"/>
<path class="st0" d="M194.1,319.4c-37.4,0-59-33.6-49.3-88.7c9.9-56.1,43.2-88.4,81.2-88.4c20.9,0,31.1,6.7,35.7,11.4l-9.5,16.2
	c-4.4-3.8-11.3-8.2-23.9-8.2c-31.1,0-48.1,28.2-55.1,68.1c-7.2,40.9,2.4,69.1,30,69.1c11.7,0,20.3-3.8,27.4-8.2l3.9,17.4
	C226.8,314,213.2,319.4,194.1,319.4"/>
<path class="st0" d="M339.8,160.1c-32.6,0-45.4,36.4-51.5,71s-5.2,69.1,26.8,69.1c32.7,0,44.8-34.9,50.8-69.1
	S372.4,160.1,339.8,160.1 M311.7,319.4c-46.6,0-60.1-38.3-51.3-88.4c9-51,36.2-88.7,82.2-88.7c46.9,0,60.2,37.7,51.2,88.7
	C385,281.1,358,319.4,311.7,319.4"/>
<path class="st0" d="M652.4,219.3c-44,5.4-71.3,14.5-77.4,49.1c-4.4,24.7,9,34.8,34.4,34.8c10.7,0,21.6-1.9,29.2-5.7L652.4,219.3z
	 M604.3,319.4c-44.3,0-61.5-19.3-56-50.4c8-45.3,52.8-58.6,106.7-64l1.8-10.5c4.7-26.3-9.8-33.9-31.7-33.9c-16.5,0-32.7,6-43.1,10.8
	l-3.8-16.5c17-8.2,35.6-12.5,54.5-12.7c31.7,0,57.2,13.6,49.8,55.4l-19.4,109.6C648.9,314.7,628.1,319.4,604.3,319.4"/>
<path class="st0" d="M780.7,316.3l21.6-122.6c2.8-15.9-0.8-33.3-29.9-33.3c-15.8,0-23.9,2.2-33.4,6l-26.5,149.8h-27.8l28.5-161.9
	c16.5-7.3,37.3-12,64.5-12c47.6,0,56.8,26.3,52.6,50.7l-21.7,123.2H780.7z"/>
<path class="st1" d="M950.7,355.5H9.4l0.9-5.6h941.2L950.7,355.5z"/>
<path class="st0" d="M515.7,228.8c-7.6,43.1-26.7,72.6-61.9,72.6c-8.9,0-17.6-1-23.4-4.1l23.1-130.9c8.7-4.4,16.4-6.6,29-6.6
	C514.8,159.8,522.2,191.5,515.7,228.8 M492.4,143.3c-16.8,0-26.9,3.5-36.2,7.9l14.7-83.3l-30.7,17.8l-39.1,221.7
	c9,6.7,25.7,12,48.9,12c50.7,0,84.1-36.8,93.7-91.6C552.8,176.2,531.7,143.2,492.4,143.3"/>
<path class="st0" d="M978,145.5h-29.1l-74.8,79.2h-0.6l19.1-107.9c19-106.9-96.4-129.4-216.8-111C593.9,18.4,521.6,51,521.6,51
	S616,18,699,13.2c104.9-6,187.1,9.9,163.1,121l-32.1,182h27.3l15.5-88.1h0.6l49.7,88.1h31.7l-55.6-91L978,145.5z"/>
<path class="st0" d="M24.8,411.4l-12,67.8h-10l12-67.8H0l1.2-6.7h39.6l-1.2,6.7L24.8,411.4z"/>
<path class="st0" d="M71.4,479.1l7.3-41.3c1.1-6-0.6-11.5-9.9-11.5c-4.1-0.1-8.2,0.9-11.9,2.9l-8.8,49.9h-9.5l15-85h9.5l-5.2,29.7
	c5.3-2.5,9.7-3.6,14-3.6c14.9,0,17.8,8.9,16.4,17.2l-7.3,41.7H71.4z"/>
<path class="st0" d="M123,425.9c-8.5,0-15.9,6.8-18.5,22.6l28.7-4.3C135.5,431,131.3,425.9,123,425.9 M103.9,453.6
	c-1.3,13.2,3.8,19.7,14.3,19.7c5.2,0.1,10.3-1.1,15-3.4l1.4,6.3c-3.9,2.2-10.4,4-18.3,4c-15.3,0-24.3-9.7-20.6-30.4
	c3.5-19.8,15.1-30.1,28.8-30.1c14,0,20.8,9.1,17.2,28.6L103.9,453.6z"/>
<path class="st0" d="M213.7,409.5c-3-0.1-5.9,0.4-8.7,1.4l-5.5,31.2l3.2,0.3c15.4,1.5,22.4-5.7,24.4-16.5S225,409.5,213.7,409.5
	 M201.7,448.5l-3.3-0.3l-5.4,30.9h-9.7l12.6-71.5c4.6-2.4,11.4-4.1,19.3-4.1c17.6,0,23.8,9.5,21.5,22.5
	c-2.3,13.2-13.3,24.6-34.9,22.4"/>
<path class="st0" d="M271.7,446c-15,1.9-24.4,5-26.4,16.8c-1.5,8.4,3.1,11.9,11.8,11.9c3.4,0.1,6.8-0.6,10-1.9L271.7,446z
	 M255.3,480.2c-15.1,0-21-6.6-19.1-17.3c2.7-15.5,18-20,36.4-21.8l0.6-3.6c1.6-9-3.4-11.6-10.8-11.6c-5.6,0-11.2,2-14.7,3.7
	l-1.3-5.7c5.8-2.8,12.2-4.2,18.6-4.3c10.8,0,19.5,4.7,17,19l-6.6,37.5C270.5,478.7,263.4,480.2,255.3,480.2"/>
<path class="st0" d="M320.7,479.1l7.4-41.9c1-5.4-0.3-11.4-10.3-11.4c-3.9-0.2-7.8,0.6-11.4,2.1l-9,51.2h-9.5l9.8-55.3
	c5.6-2.5,12.7-4.1,22-4.1c16.3,0,19.4,9,18,17.3l-7.5,42.1H320.7z"/>
<path class="st0" d="M413.7,422.6c-0.5-3-0.7-6-0.6-9h-0.2c-1.1,3.1-2.3,6.1-3.9,9l-13.9,28.3h22.2L413.7,422.6z M421.1,479.1
	l-3.1-22.3h-25.5l-11.2,22.3h-9.1l38.3-74.5h8.9l12,74.5H421.1z"/>
<path class="st0" d="M461.7,426.7l-9.2,52.4h-9.6l9.3-52.4h-6.8l1.1-5.9h6.7l1.5-8.2c2-11.5,10.3-19,22.9-18.4l-1,6
	c-5.8,0.3-10.7,3.1-12.2,11.3l-1.6,9.3H473l-1,5.9L461.7,426.7z"/>
<path class="st0" d="M505.3,427c-4.5-1.4-10-1-13.5,1.1l-9,51h-9.5l9.7-55.2c6.3-2.9,12-4.4,25.8-4.1L505.3,427z"/>
<path class="st0" d="M525.8,409.5c-3.1,0-5.3-2.4-4.7-5.2c0.7-3.1,3.4-5.3,6.5-5.3c2.4-0.2,4.5,1.7,4.7,4.1c0,0.4,0,0.8-0.1,1.2
	C531.5,407.3,528.9,409.5,525.8,409.5 M508.8,479.1l10.3-58.3h9.5l-10.3,58.3L508.8,479.1z"/>
<path class="st0" d="M552.7,480.2c-12.8,0-20.2-11.5-16.8-30.3c3.3-19.2,14.7-30.2,27.7-30.2c7.2,0,10.7,2.3,12.2,3.9l-3.3,5.5
	c-2.3-1.9-5.2-2.9-8.1-2.8c-10.7,0-16.5,9.7-18.9,23.3c-2.4,13.9,0.8,23.6,10.3,23.6c3.3,0,6.6-1,9.4-2.8l1.3,5.9
	C563.9,478.3,559.2,480.2,552.7,480.2"/>
<path class="st0" d="M611.8,446c-15,1.9-24.3,5-26.4,16.8c-1.5,8.4,3.1,11.9,11.7,11.9c3.4,0.1,6.8-0.6,10-1.9L611.8,446z
	 M595.4,480.2c-15.1,0-21-6.6-19.1-17.3c2.7-15.5,18-20,36.4-21.8l0.6-3.6c1.6-9-3.4-11.6-10.8-11.6c-5.1,0.2-10.1,1.4-14.7,3.7
	l-1.3-5.7c5.8-2.8,12.2-4.2,18.6-4.3c10.8,0,19.5,4.7,17,19l-6.6,37.5C610.6,478.7,603.5,480.2,595.4,480.2"/>
<path class="st0" d="M660.8,479.1l7.3-41.9c1-5.4-0.3-11.4-10.2-11.4c-3.9-0.2-7.8,0.6-11.4,2.1l-9,51.2H628l9.7-55.3
	c5.6-2.5,12.8-4.1,22-4.1c16.3,0,19.4,9,18,17.3l-7.5,42.1H660.8z"/>
<path class="st0" d="M750.1,409.3c-3.4,0-6.9,0.5-10.1,1.6l-4.7,26.5h4.8c15.4,0,21.5-4.7,23.1-14.5
	C764.9,413.8,760.3,409.3,750.1,409.3 M739.4,442.4h-5l-5.2,29.7c2.6,1.2,5.6,1.7,10.2,1.7c9.7,0,18-3.9,19.9-14.7
	C761.3,447.5,755.5,442.4,739.4,442.4 M738.6,480.2c-8.4,0-15.3-1.5-19.6-4.1l12-68.4c4.5-2.4,12-4.1,20.1-4.1
	c16.4,0,23.7,7.8,21.8,18.6c-1.8,10.6-10.6,16-17.5,17.4v0.2c6.7,1.3,15.9,7.9,13.9,19.3C766.7,473.9,754,480.2,738.6,480.2"/>
<path class="st0" d="M812.9,446c-15,1.9-24.3,5-26.5,16.8c-1.5,8.4,3.1,11.9,11.8,11.9c3.4,0.1,6.8-0.6,10-1.9L812.9,446z
	 M796.5,480.2c-15.2,0-21-6.6-19.2-17.3c2.8-15.5,18-20,36.5-21.8l0.6-3.6c1.6-9-3.3-11.6-10.8-11.6c-5.7,0-11.2,2-14.7,3.7
	l-1.3-5.7c5.8-2.8,12.2-4.2,18.6-4.3c10.8,0,19.6,4.7,17,19l-6.6,37.5C811.7,478.7,804.6,480.2,796.5,480.2"/>
<path class="st0" d="M863,479.1l7.4-41.9c0.9-5.4-0.3-11.4-10.3-11.4c-3.9-0.2-7.8,0.6-11.4,2.1l-9,51.2h-9.5l9.8-55.3
	c5.6-2.5,12.7-4.1,22-4.1c16.2,0,19.4,9,18,17.3l-7.5,42.1H863z"/>
<path class="st0" d="M917.9,479.1l-17-30.1h-0.3l-5.3,30.1H886l15-85h9.3l-9.5,53.7h0.2l25.6-27.1h9.9l-26.8,27.4l19,31.1
	L917.9,479.1z"/>
</svg>
