<?xml version="1.0" encoding="utf-8"?>
<!-- Generator: Adobe Illustrator 22.0.1, SVG Export Plug-In . SVG Version: 6.00 Build 0)  -->
<svg version="1.1" id="Layer_1" xmlns="http://www.w3.org/2000/svg" xmlns:xlink="http://www.w3.org/1999/xlink" x="0px" y="0px"
	 viewBox="0 0 965 965" style="enable-background:new 0 0 965 965;" xml:space="preserve">
<style type="text/css">
	.st0{fill:#162D4C;}
	.st1{fill:#E4B935;}
	.st2{fill:#DFAC0F;}
	.st3{fill:#FFFFFF;}
	.st4{fill:#DCAA10;}
</style>
<title>Nigeria-Logo</title>
<rect class="st0" width="965" height="965"/>
<path class="st1" d="M421.5,144.5V144h291v0.5L421.5,144.5z"/>
<path class="st2" d="M421.5,144.5h291c-2.2,10.6-4.4,21.2-6.6,31.7c-8.6,40.4-17.3,80.9-25.9,121.3c-3.5,16.4-7,32.9-10.5,49.3
	c-0.5,2-0.3,2.7,2,2.7c8,0.1,16,0,24-0.3c3.9-0.2,7.8,0,11.7,0.8c7,1.5,9,6.5,4.8,12.4c-2.3,3.1-5.4,5.5-8.9,7.1
	c-7.9,4.1-16.4,5.8-25.1,6.9c-4.3,0.7-8.6,1-12.9,1c-1.7,0-2.1,0.8-2.4,2.1c-2.7,12.7-5.4,25.4-8.1,38.1l-24.7,116.4
	c-0.5,2.4-1,4.7-1.5,7.1c-0.2,1.3-0.7,2.2-2.3,1.9c-0.4,0-0.8,0-1.3,0H340.1c-3.4,0-3.4,0-2.7-3.5c14.3-67.1,28.5-134.2,42.7-201.4
	c3.2-15,6.4-29.9,9.6-44.9c0.3-0.9,0.2-1.8-0.2-2.6c-4.3-8.4-5.6-17.5-6.5-26.8c-2.3-23.4,3.2-45.8,9.6-68.1
	c1.9-6.4,8.8-10.3,16.4-9.5c2.8,0.3,3.6-0.4,4.1-3.1c2.5-12.6,5.3-25.2,8-37.8C421.3,145.1,421.4,144.8,421.5,144.5z M520.5,351.5
	c0.7-0.1,1.5-0.1,2.2,0c9.1,2.1,13.8-3.3,17.5-10.4c0.4-0.8,0.8-1.6,1.2-2.5c2.6-5.9,2.6-5.9-2.2-10c-0.3-0.3-0.6-0.6-1-0.8
	c-2.1-1.3-2.1-2.6-0.8-4.7c8-13.1,23.2-20,38.4-17.5c2.5,0.3,4.9,1.4,6.9,3c6.5,5.2,13.2,10.1,20.1,14.9c6.3,4.5,12.9,8.6,19.7,12.2
	c2.5,1.3,2.7,1.3,2.4-1.5c-0.4-5.1-1-10.3-1.5-15.4c-1.3-11.5-4.8-22.2-12.2-31.4c-5.3-6.6-10.3-13.5-15.7-20
	c-1.1-1.1-1.5-2.7-1.3-4.3c1.2-9.5,1.2-9.5-4.7-17c-13-16.5-28.4-30.6-44.2-44.3c-0.9-0.7-2-1.2-3.2-1.4
	c-10.9-2.7-22.1-4.2-33.3-4.6c-6.5-0.3-12.6,0.4-17.9,4.4c-4.4,3.3-9,3.8-14.5,2.9c-17.7-2.9-35.5-5.4-53.3-7.9
	c-5.2-0.7-10.3-2-15.6-1.7c-4.5,0.2-7.1,1.8-8.2,5.5c-5.7,18.5-10,37.3-9.4,56.9c0.3,18,6.3,35.5,17.1,50
	c12,16.2,28.2,26.6,46.8,33.6C475.4,347.6,497.8,350.5,520.5,351.5L520.5,351.5z M518.5,474.2c-1,0.7-1.7,1.1-2.4,1.6
	c-8.7,5.4-17.3,10.9-26,16.3c-1.8,1.1-1.8,1.6-0.2,3c14,11.5,27.9,23.2,41.9,34.8c0.3,0.3,0.7,0.8,1.4,0.5c0.2-2.6,0.5-5.2,0.4-7.9
	c0-3,0.6-6,1.8-8.7c3.9-9.3,7.6-18.6,11.4-27.9c0.5-1.1,0.7-2.4,0.7-3.6c-0.3-8.2-0.7-16.5-0.9-24.7c0-1.5-0.5-2.9-1.3-4.2
	c-8.8-14.3-17.6-28.6-26.5-42.9c-0.8-1.2-1-2.6-0.6-3.9c1.5-5.1,2.8-10.3,4.3-15.4c0.6-2,0.7-4.1,0.5-6.2c-0.5-5.6-1-11.3-1.4-16.9
	c-0.1-1.9-0.6-2.5-2.6-2.5c-13.2,0-26.5-1.3-39.4-3.9c-33.8-7-61.1-23.9-80.5-52.8c-0.4-0.6-0.6-1.4-1.6-1.6
	c-0.1,0.5-0.2,0.9-0.3,1.4c-8.6,40.9-17.3,81.8-25.9,122.8c-1.1,5.1-1.1,5.2,4.1,5.7c3.3,0.4,6.5,1.4,10,0.1c17-6.1,34.2-12,51.3-18
	c1.7-0.8,3.8-0.5,5.2,0.7c22.7,16.2,45.4,32.3,68.2,48.4L518.5,474.2z M438.6,428.6c0,12.2,0,24.3,0,36.4c0,2.1-0.4,4.1-1.2,6
	c-6.6,15.7-13.1,31.5-19.7,47.2c-0.8,1.5-0.7,3.3,0.2,4.7c1.4,2.5,2.6,5,3.8,7.6c0.4,1.3,1.8,2.2,3.2,2.1c15.9-0.1,31.8,0,47.7-0.1
	c0.7,0,1.5,0.3,2.2-0.5c-1.5-3-2.9-6.1-4.5-9.1c-0.8-1.4-1.1-3.1-0.7-4.8c3.9-19.1,7.7-38.1,11.7-57.2c0.4-1.9,0-2.8-1.5-3.9
	c-13.1-9.1-26.1-18.2-39.1-27.4C440.1,429.1,439.3,428.7,438.6,428.6L438.6,428.6z M658.7,371.1c1.8,0,3.7,0.1,5.5,0
	c10.9-0.4,21.7-1.8,32.1-5.4c3.2-1,6.1-2.6,8.6-4.8c1.2-1.1,2.3-2.5,1.6-4.2c-0.6-1.5-2.3-1.6-3.6-1.6c-3.3,0-6.7-0.1-10,0.2
	c-14,1.3-28.2,0.3-41.9-3.1c-24.4-6-46.1-17.5-66.2-32.3c-2.6-2-5.7-3.3-9-3.7c-9.4-1-17.5,1.2-23.6,8.9c-1.1,1.4-1.2,2.3,0.3,3.6
	c7.7,6.9,16.1,13,24.9,18.4C602.4,362.3,629.2,371.1,658.7,371.1L658.7,371.1z M584.2,360.3c0.3,1.7,0.5,3,0.6,4.4
	c0.4,4.3,1.8,8.5,1.4,12.9c-1.3,13.4-4.2,26.6-5.9,40c-1.4,10.4-2.8,20.8-2.2,31.4c0.5,8.5,3.2,16.2,10.4,21.2
	c6.8,4.8,14.3,6.2,22.1,2.2c1.3-0.5,2-1.8,1.9-3.2c0-2.8-0.3-5.6-0.8-8.4c-0.3-1.8-0.9-2.2-2.8-1.9c-7.1,1.3-11.9-3.8-10.5-10.8
	c1.2-6.2,3.7-11.9,6-17.7c5.7-13.9,12.5-27.2,18.4-41c1.5-3.9,2.4-8,2.8-12.1c0.2-1.4,0-2.1-1.7-2.3c-2.8-0.4-5.6-1-8.3-1.7
	C604.5,370.3,594,366,584.2,360.3z"/>
<path class="st3" d="M525.1,658.6c2.9,0.5,5.8,1.2,8.6,2.3c9.1,3.8,13.9,10.8,14.4,20.4c0.8,17.7-7.7,30.7-21.8,40.5
	c-9,6.2-19.8,9.5-30.8,9.5c-14.6,0.1-29.1,0-43.7,0c-3.9,0-4.8-1.1-4-4.9c8.8-42.7,17.6-85.5,26.5-128.2c0.9-4.4,2-5.3,6.4-5.3
	c9.4,0,18.8,0,28.2,0c8.7,0,17.3,1,25.4,4.5c8.7,3.8,15.3,9.9,16.2,19.8c1.3,14.2-3.5,26.2-14.9,35.1
	C532.2,654.9,528.7,656.9,525.1,658.6z M486.5,715.2V715c3.1,0,6.2,0.1,9.2,0c14.8-0.7,24.5-9.2,27.2-23.8
	c2.2-11.8-3.6-20-15.4-21.8c-7.4-1.1-14.8-0.3-22.2-0.5c-1.2,0-1.3,0.7-1.5,1.5c-0.8,4.1-1.7,8.1-2.5,12.2c-2.1,10-4.1,20-6.3,30
	c-0.4,2-0.1,2.8,2.2,2.6C480.3,715,483.4,715.2,486.5,715.2z M494.8,652.7c3.2,0.2,6.3,0,9.4-0.5c11.5-2.6,20.3-12.9,21.4-25
	c0.9-9.7-3.3-15.4-12.8-17.3c-4.2-0.9-8.4-0.6-12.7-0.9c-2.9-0.2-3.9,0.7-4.4,3.6c-2.4,12.7-5.1,25.4-7.8,38.1
	c-0.4,2,0.2,2.2,1.9,2.1S493.1,652.7,494.8,652.7L494.8,652.7z"/>
<path class="st3" d="M641.5,643.8c1.3-3.3,2.5-6,3.5-8.8c0.6-2.3,2.7-3.8,5.1-3.5c4.3,0.1,8.5,0,12.8,0c3.2,0,4.1,1.2,3.5,4.2
	c-4.7,23.1-9.3,46.1-14,69.2c-0.5,1.9-0.6,3.8-0.5,5.7c0.4,3.2,1.5,4.3,4.7,4.8c2,0.3,2.8,1.4,2.5,3.2c-0.6,3.2-1.2,6.4-2,9.5
	c-0.3,2-2.1,3.4-4.1,3.3c-4,0.2-8-0.2-11.9-1.2c-6.2-1.6-9.5-5.6-10.3-12c-0.1-0.7-0.1-1.5-0.2-2.3c-1.1,0.3-1.5,1.2-2,1.8
	c-12.4,13.5-27.8,18.3-45.7,15.2c-12.1-2.1-19.6-9.6-22.3-21.7c-2.3-10.3-1.1-20.4,1-30.5c2.4-12,6.5-23.3,14-33.3
	c12.9-17.4,33.6-21.1,49.3-17.1C632.2,632.3,637.6,636.7,641.5,643.8z M582.5,699.2c0,2.3,0.2,4.5,0.6,6.7
	c1.1,6.6,4.8,10.3,11.4,11.4c13,2.2,25.4-3.5,31.9-15.1c6.4-11.7,9.5-25,9.1-38.4c-0.2-9.5-4.7-15.3-12.7-17.7
	c-4.7-1.3-9.6-1.5-14.3-0.5c-8.4,1.4-13.3,7.1-16.8,14.2C585.7,672.3,583.5,685.7,582.5,699.2L582.5,699.2z"/>
<path class="st3" d="M834.3,593.8c-2.8,13.5-5.5,26.9-8.3,40.3c-2.8,13.4-5.5,26.9-8.3,40.4c1.3-0.1,1.7-1,2.3-1.6
	c12.5-12.4,25-24.7,37.4-37.2c2.6-2.8,6.2-4.3,10-4.1c4.6,0.2,9.2,0,13.7,0.1c1,0,2.3-0.3,2.7,0.7s-0.8,1.7-1.5,2.3
	c-15.3,14.4-30.7,28.8-46.1,43.2c-1.6,1.5-1.6,2.5-0.5,4.2c9.6,14.8,19,29.7,28.5,44.6c0.5,0.7,0.9,1.4,1.3,2.1
	c0.8,1.5,0.4,2.5-1.3,2.6c-7.3,0-14.5,0.1-21.7-0.1c-2.2,0-3.4-1.8-4.5-3.6c-7.2-12.4-14.4-24.7-21.7-37c-0.4-0.8-0.7-1.7-1.8-2.2
	c-2.1,10-4.1,19.9-6.1,29.8c-0.6,3.1-1.3,6.2-2,9.3s-1.9,3.9-4.9,3.9c-4.7,0-9.3,0-14,0c-4.2,0-4.9-0.9-4.1-4.9
	c2.6-12.4,5.2-24.7,7.7-37.1c5.6-27,11.2-54,16.7-80.9c0.2-1.4,1.1-2.6,2.4-3.2c7.2-3.5,14.2-7.2,21.4-10.8
	C832.5,594.1,833.4,593.8,834.3,593.8z"/>
<path class="st3" d="M711.1,647.6c3.5-4.6,7.5-8.9,11.9-12.6c10.5-8.6,31.8-7.3,41.7,1.8c8,7.3,10.2,16.7,8.4,26.9
	c-2.3,13.2-5.2,26.3-7.8,39.4c-0.6,2.8-1.1,5.7-0.3,8.7c0.5,2,1.4,3.7,4,3.7c2.2,0,3,1.3,2.6,3.3c-0.6,3.2-1.2,6.4-2,9.5
	c-0.4,1.9-2.1,3.3-4,3.2c-4,0.2-8-0.2-11.9-1.2c-9-2.5-13.4-9-13-19c0.3-6.8,2.3-13.3,3.5-19.9c1.6-9,4.3-17.8,4.8-27
	c0.1-1.8,0.1-3.7,0-5.5c-0.7-10.1-7-14.9-16.9-13.2c-6.3,1-11.8,4.7-15.2,10c-4.5,6.5-6.3,14-7.9,21.6c-3.4,16.6-6.9,33.2-10.4,49.8
	c-0.7,3.5-1.9,4.4-5.5,4.4c-4.8,0-9.7,0-14.5,0c-3.1,0-4-1.3-3.4-4.3c4.7-22.8,9.4-45.6,14.1-68.4c0.5-2.5,1.1-5,0.4-7.6
	c-0.6-2-1.7-3.3-4-3.5c-2.8-0.2-3.4-1.2-2.8-4s1.1-5.5,1.7-8.3c0.3-2.2,2.1-3.8,4.3-3.8c4.1-0.3,8.2,0.1,12.1,1.2
	c6.6,1.9,9.3,5.3,10,12.1C711,645.6,711,646.3,711.1,647.6z"/>
<path class="st3" d="M127.1,652.5h15.1c7.5,0,15,0,22.5,0c3.6,0,4.5,1.1,3.8,4.6c-0.6,2.8-1.2,5.5-1.8,8.3c-0.8,3.5-2,4.4-5.8,4.4
	c-11.5,0-23,0-34.5-0.1c-2.2,0-3.1,0.4-3.6,2.8c-3.5,17.6-7.2,35.2-10.8,52.8c-1,5-1.8,5.7-7,5.7c-4.8,0-9.5,0-14.2,0
	c-3.4,0-4.3-1.1-3.6-4.5c4.2-20.4,8.4-40.7,12.6-61.1c4.6-22.2,9.2-44.5,13.8-66.7c1.1-5.4,1.9-6.1,7.5-6.1l65,0.1
	c4.6,0,5.3,0.8,4.4,5.3c-0.6,2.6-1.1,5.2-1.7,7.8c-0.8,3.2-1.9,4.1-5.2,4.1c-15,0-30,0-45,0c-2,0-2.8,0.4-3.3,2.5
	C132.6,625.7,129.9,639,127.1,652.5z"/>
<path class="st3" d="M323.8,733.5c-7.9-0.1-15.8-1.4-23.3-4c-2.6-0.8-5-2.3-7-4.2c-2-2.1-2-4-0.3-6.2c1.1-1.4,2.4-2.8,3.6-4.1
	c3-3.4,3.5-3.5,8-2c6.2,2.1,12.5,4,19.1,4.3c5.9,0.3,11.6,0.1,17.2-2.2c4.4-1.7,7.7-5.6,8.7-10.3c0.9-3.6-0.1-6.1-3.3-8.1
	c-3.4-2-7-3.5-10.7-4.6c-4.3-1.4-8.5-2.9-12.8-4c-15.5-4.1-19.2-15.8-16.2-29.1c3.6-15.8,16.1-27,32.8-29.4
	c11.9-1.7,23.6-1,34.8,3.9c2.2,0.9,4.3,2.2,6.1,3.8c1.9,1.8,2,3.3,0.4,5.2c-2,2.4-4.1,4.6-6.1,7c-1,1.2-2.1,1.1-3.4,0.7
	c-4.9-1.4-9.5-3.5-14.5-4.4c-5.7-1-11.4-1.3-17.1,0.3c-4.9,1.3-8.9,5.1-10.3,10c-1.8,5.3,0.2,9.2,5.5,10.9c6.7,2.1,13.4,4.1,20,6.1
	c3.4,0.9,6.6,2.3,9.6,4c5.6,3.3,8.4,8.4,8.7,14.8c0.9,17.3-8.4,31-25.5,37.7C340.7,732.4,333,733.5,323.8,733.5z"/>
<path class="st3" d="M407.4,646.5c-3,0-6.1,0-9.2,0c-3.6,0-4.4-0.9-3.7-4.3c0.5-2.5,1-4.9,1.6-7.3c0.3-2.1,2.2-3.6,4.3-3.4
	c2.8,0,5.5-0.2,8.3,0c1.8,0.1,2.4-0.6,2.7-2.3c0.8-4.5,1.7-9,2.6-13.5c0.2-0.8,0.2-1.6,1.1-2c8.2-4.1,16.5-8.3,24.9-12.6
	c0.2,2.7-0.6,4.9-1.1,7.2c-1.3,7-2.7,13.9-4.2,20.8c-0.4,1.8-0.1,2.5,2,2.4c3.4-0.2,6.8-0.1,10.2,0c2.8,0,3.6,1,3.1,3.8
	s-1.1,5.2-1.7,7.8s-2.2,3.6-4.7,3.5c-3.6,0-7.2,0-10.8,0c-1.3,0-1.9,0.3-2.2,1.7c-3.7,18.6-7.5,37.2-11.2,55.8
	c-0.5,2.1-0.4,4.3,0.3,6.4c1,2.9,3.8,4.8,6.9,4.8c6.6,0.2,6.7,0.2,5.4,6.7c-0.4,2-0.8,4.1-1.3,6.1c-0.3,1.9-1.9,3.3-3.9,3.3
	c-5.3,0.1-10.7,0.5-16-0.5c-10.4-1.9-15.5-8-15.7-18.7c-0.1-7,1.8-13.7,3.2-20.4c3-14.8,6.1-29.7,9.1-44.5
	C407.4,647,407.4,646.7,407.4,646.5z"/>
<path class="st3" d="M269.3,642.6c1-1.2,2-2.4,3.1-3.6c7.5-7.1,16.6-9.5,26.6-9.3c2,0,2.9,0.6,2.3,2.9c-1.1,4.4-1.9,8.9-2.9,13.4
	c-0.9,4-2.2,4.7-6.1,4.2c-10.2-1.3-21.4,2.3-24.8,17c-4.4,19.7-8.7,39.5-13,59.2c-1,4.7-1.9,5.4-6.8,5.4c-4.4,0-8.8,0-13.2,0
	c-3.4,0-4.3-1.1-3.6-4.5c4.9-22.8,9.8-45.7,14.8-68.5c0.5-2,0.8-4.1,0.8-6.2c-0.2-3.3-1.4-4.7-4.7-5.2c-2-0.3-2.9-1.4-2.5-3.5
	c0.6-3,1.1-6,1.8-9c0.3-2.1,2.1-3.6,4.2-3.6c5.2-0.1,10.3,0,15.3,1.5c4.7,1.4,7.5,4.4,7.9,9.5L269.3,642.6z"/>
<path class="st3" d="M181.8,714.3c0.2-7.1,2.3-13.9,3.8-20.8c4.1-19,8.3-38,12.4-57c0.8-3.5,2-4.4,5.5-4.5c4.7,0,9.3,0,14,0
	c3.5,0,4.4,1,3.6,4.4c-4.9,22.8-9.8,45.5-14.8,68.3c-0.7,2.8-0.9,5.6-0.7,8.4c0.3,3.2,1.4,4.4,4.5,4.9c1.8,0.3,2.7,1.4,2.4,3.1
	c-0.6,3.3-1.2,6.5-2,9.8c-0.4,1.8-2,3-3.8,3c-5,0.2-10-0.2-14.7-2.2C185,728.7,181.6,722.9,181.8,714.3z"/>
<path class="st3" d="M531.2,792.5c8.4,4.8,9.2,14.4,2,21.3c-5.2,5.1-16.7,6.7-23.2,3.3c-3.1-1.5-5-4.6-5-8.1
	c-0.4-5.9,2.6-11.5,7.7-14.4c1.3-0.8,2.6-1.4,3.9-2c0-0.2,0-0.4-0.1-0.5c-7.1-3.7-5.5-10.4-1.8-15.7c1.9-2.5,4.6-4.2,7.6-4.9
	c3.4-0.9,6.9-1,10.4-0.4c3.3,0.5,6.4,1.9,7.4,5.5c1.3,3.9,0.5,8.1-2.2,11.2C536.2,789.9,533.9,791.2,531.2,792.5z M513.5,806.6
	c-0.2,3,1.9,5.5,4.9,6c6.6,1.4,13-5.3,11.3-12c-0.5-2.7-2.9-4.7-5.7-4.7C518.4,795.7,513.5,800.6,513.5,806.6z M527.4,776.9
	c-4,0-7.3,3.2-7.3,7.2c0,0,0,0,0,0c-0.2,2.8,1.9,5.1,4.7,5.3c0,0,0.1,0,0.1,0c3.7,0.1,7.5-4,7.6-7.9
	C532.5,778.8,530.4,776.9,527.4,776.9L527.4,776.9z"/>
<path class="st3" d="M577.4,780.1c-0.4-4.6-3.9-8.3-8.4-9.1c-3.1-0.6-6.4-0.3-9.4,0.7c-8.6,3.1-11.8,10.1-12.6,18.4
	c-0.8,8.9,4.3,13.5,13.3,12.5c3.4-0.4,5.7-2.3,8.1-4.5c-0.2,2.9-1.2,5.7-2.7,8.2c-2.6,4.7-6.5,7.1-11.9,6.1
	c-1.8-0.2-3.6-0.6-5.3-1.1c-3-1.1-3.1,1.5-3.9,2.9c-1.1,1.7,0.8,2.1,1.8,2.6c8.3,4.1,17.3,2.3,23-5.2
	C576.5,802.4,578.9,791.7,577.4,780.1z M570.3,784.6c-0.4,2.8-1.3,5.5-2.7,8c-1.6,2.6-3.8,4.2-6.9,4c-4-0.1-5.8-1.9-5.7-6.5
	c0.2-2.7,0.9-5.4,2.1-7.8c0.7-1.7,2-3.1,3.6-4.1c2.3-1.3,4.9-2.1,7.3-0.5S570.7,781.9,570.3,784.6z"/>
<path class="st3" d="M600,807h-17.7c-2.5,0-2.9-0.8-1.8-3c0.4-0.8,1-1.5,1.6-2.2c8.1-9.3,16.3-18.5,24.2-27.9c2.3-2.8,5-2.5,7.9-2.3
	c1.6,0.1,1,1.4,0.8,2.3c-1.4,6.9-2.8,13.8-4.3,20.7c-0.2,1.6-0.6,3.1-1,4.6c-0.6,1.8,0.2,1.9,1.7,1.9c1.1,0.1,3.1-1,3.1,1.5
	c-0.1,3.4-0.8,4.5-3.3,4.2s-3.4,0.7-3.6,3c-0.1,0.8-0.3,1.6-0.5,2.4c-1.3,6.1-1.3,6.1-7.5,5.7c-1.5-0.1-1.8-0.7-1.5-2
	C598.7,813.2,599.3,810.3,600,807z M604.7,784.2l-14.3,17c3.6,0,6.6,0,9.5,0c0.7,0.1,1.4-0.4,1.5-1.1c0,0,0-0.1,0-0.1
	C602.5,794.9,603.5,789.9,604.7,784.2L604.7,784.2z"/>
<path class="st3" d="M314.8,818.7c-3.8,0-7.6-0.8-11.1-2.2c-0.9-0.4-2.6-0.6-1.8-2s0.9-4.1,3.8-3.4c3.9,1,7.8,1.5,11.8,1.5
	c2.1,0,4.2-0.6,6-1.6c4.6-2.6,4.8-7.6,0.2-10.3c-2.3-1.2-4.6-2.3-7-3.2c-9.9-4.3-11.7-13.9-3.9-21.3c6.3-6,13.9-6.5,21.9-4.5
	c0.7,0.2,1.4,0.5,2.1,0.7c3.8,1.3,3.9,1.6,1.8,4.9c-0.5,1-1.6,1.5-2.6,1c0,0,0,0,0,0c-3.9-1.2-8-1.7-12.1-1.3
	c-2.8,0.2-5.4,1.7-6.9,4.1c-2,3.3-1.3,6.2,2.1,7.9c2.3,1.1,4.8,2,7.1,3c10.2,4.3,11.6,15.7,2.9,22.5
	C325.5,817.2,320.7,818.7,314.8,818.7z"/>
<path class="st3" d="M373.8,789.5c2.3-2.5,4.3-4.9,7.5-5.6c8.8-1.9,14.9,3.9,13.1,12.8c-0.8,4.2-1.7,8.3-2.5,12.5
	c-0.3,1.5-0.5,2.8,1.5,3.6c1.6,0.6,0.2,2.2,0.2,3.3c0.1,1-0.7,1.9-1.7,1.9c-0.1,0-0.1,0-0.2,0c-5.5,0.6-8.9-2.9-7.9-8.3
	c0.7-4.1,1.6-8.2,2.4-12.2c0.1-0.7,0.2-1.3,0.3-2c0.1-2.4,0-4.8-2.5-6c-2.2-1.1-5.5-0.2-7.5,2s-2.8,5-3.4,7.9
	c-1.2,5.5-2.4,11-3.5,16.6c0,1.2-1.1,2.2-2.3,2.1c-0.1,0-0.2,0-0.2,0c-5.9,0.1-5.8,0.2-4.7-5.5c1.3-6.4,2.6-12.7,3.9-19
	c0.3-1.5,0.8-3.2-1.5-3.8c-1-0.3-0.8-1.2-0.5-1.9c0.5-1.2-0.1-2.8,1.6-3.3c3.2-1,6.6,0.8,7.6,4C373.6,788.8,373.7,789.1,373.8,789.5
	z"/>
<path class="st3" d="M448.7,803.9c-2.2,0-4.3,0.1-6.5,0c-1.6-0.1-2,0.6-2,2c-0.2,5.3,2.6,8,7.8,7.4c2.1-0.3,4.3-0.8,6.3-1.4
	c1.6-0.5,2.2,0,2.8,1.3s0.4,2.4-1,3.1c-4.1,2.1-8.7,2.9-13.3,2.4c-7.8-0.8-11.3-5.3-10.5-13c0.3-4.2,1.4-8.4,3.3-12.2
	c3.8-7.6,11-11.2,19.2-9.5c4.8,1,7.6,4.1,7.8,9c0.1,1.5,0,3-0.3,4.5c-1,4.8-3,6.5-7.9,6.5C452.5,804,450.6,804,448.7,803.9
	L448.7,803.9z M441.5,798.5h10.7c0.8,0.1,1.7-0.3,2.1-1c1.1-1.8,0.6-5.7-1-7.3s-3.9-1.6-6.2-0.3C443.8,791.7,442.6,795,441.5,798.5
	L441.5,798.5z"/>
<path class="st3" d="M218.4,594c2.7,0,5.3-0.1,8,0c2.4,0.1,3.4,1.2,2.9,3.5c-1,5.2-2.1,10.4-3.3,15.6c-0.6,2.7-2,3.8-4.8,3.8
	c-5,0-10,0-15,0c-3.1,0-4-1.2-3.3-4.3c1-4.9,2.1-9.7,3.2-14.6c0.6-2.9,1.9-3.9,4.9-4C213.4,594,215.9,594,218.4,594L218.4,594z"/>
<path class="st3" d="M491.6,781.2c-2.7,1.1-5.1,2.1-7.6,3.1c-0.6,0.2-1.5,0.7-1.8,0.4c-0.7-0.5-0.1-1.4-0.1-2.1
	c0.1-2.6,1.5-4.1,4-5.1c4.6-1.8,9-3.8,13.5-5.8c0.7-0.3,1.4-1,2-0.6s0.1,1.4,0,2.1c-2.9,14.1-5.8,28.2-8.6,42.3
	c-0.4,1.9-1.2,2.6-3.2,2.5c-5.7-0.1-5.6,0-4.5-5.5c2.1-9.8,4.1-19.7,6.1-29.5C491.5,782.5,491.5,782,491.6,781.2z"/>
<path class="st3" d="M400.9,806.7c0.1-4.6,1.2-9.1,3.2-13.2c4.2-8.7,15.3-12.6,23.8-8.3c1.1,0.5,3.1,0.8,2.4,2.8
	c-0.8,2.2-2.8,3.2-4.7,2.3c-7.6-3.6-13.1,0.9-15.1,7.3c-1.1,3.1-1.6,6.5-1.5,9.8c0.3,4.1,2.8,6.3,7,6c2-0.3,3.9-0.8,5.8-1.5
	c1-0.3,1.9-0.7,2.4,0.7c0.4,1.2,1.2,2.2-0.1,3.3c-4.2,3.6-15.1,3.9-19.4,0.4C401.5,813.9,400.8,810.4,400.9,806.7z"/>
<path class="st3" d="M341.6,810.5c0.9-4.6,2-10,3.1-15.5c0.6-2.8,1.3-5.7,1.8-8.5c0-1.2,1-2.2,2.2-2.1c0.1,0,0.2,0,0.3,0
	c5.9-0.2,5.9-0.2,4.7,5.5c-1.3,6.3-2.6,12.7-3.9,19c-0.3,1.5-0.6,3,1.6,3.8c1.5,0.6,0.2,2,0.2,3.1s-0.4,1.9-1.6,2.2
	C345.5,818.8,341.6,815.8,341.6,810.5z"/>
<path class="st3" d="M353.7,770.1c1,0,1.8,0,2.5,0s1.4,0.3,1.3,1.2c-0.3,1.9-0.8,3.7-1.2,5.6c-0.2,0.7-0.8,0.9-1.5,1.1
	c-5.9,1.1-6.6,0.2-5.4-5.6C350,769.2,352.3,770.3,353.7,770.1z"/>
<path class="st0" d="M520.5,351.5c-22.7-1-45.1-3.9-66.5-12c-18.6-7-34.8-17.4-46.8-33.6c-10.8-14.5-16.8-32-17.1-50
	c-0.6-19.6,3.7-38.3,9.4-56.9c1.1-3.8,3.7-5.3,8.2-5.5c5.3-0.3,10.4,1,15.6,1.7c17.8,2.5,35.6,4.9,53.3,7.9
	c5.5,0.9,10.1,0.4,14.5-2.9c5.3-4,11.4-4.7,17.9-4.4c11.2,0.4,22.4,1.9,33.3,4.6c1.1,0.2,2.2,0.7,3.2,1.4
	c15.8,13.7,31.2,27.9,44.2,44.3c5.9,7.5,5.9,7.5,4.7,17c-0.3,1.5,0.2,3.1,1.3,4.3c5.4,6.6,10.4,13.4,15.7,20
	c7.4,9.3,10.9,19.9,12.2,31.4c0.6,5.1,1.1,10.3,1.5,15.4c0.2,2.7,0.1,2.8-2.4,1.5c-6.8-3.7-13.4-7.7-19.7-12.2
	c-6.9-4.7-13.6-9.6-20.1-14.9c-2-1.6-4.4-2.7-6.9-3c-15.2-2.5-30.3,4.4-38.4,17.5c-1.3,2.1-1.3,3.4,0.8,4.7c0.4,0.2,0.7,0.5,1,0.8
	c4.7,4.1,4.7,4.1,2.2,10c-0.4,0.8-0.8,1.6-1.2,2.5c-3.7,7-8.4,12.5-17.5,10.4C522,351.4,521.2,351.4,520.5,351.5z M544.7,264.2
	l-13.5-15.2c-1.1-1.3-1.8,0-2.4,0.5c-6.8,6-13.7,11.9-20.5,17.9c-0.6,0.5-1.4,0.9-1.6,2L544.7,264.2z"/>
<path class="st0" d="M518.5,474.2l-8.4-6c-22.8-16.1-45.5-32.2-68.2-48.4c-1.5-1.2-3.5-1.5-5.2-0.7c-17.1,6-34.3,11.8-51.3,18
	c-3.5,1.3-6.7,0.2-10-0.1c-5.1-0.5-5.1-0.6-4.1-5.7c8.6-41,17.2-81.9,25.8-122.8c0.1-0.5,0.2-0.9,0.3-1.4c1,0.2,1.2,1,1.6,1.6
	c19.4,28.9,46.7,45.8,80.5,52.8c13,2.6,26.2,3.9,39.4,3.9c2,0,2.5,0.6,2.6,2.5c0.3,5.6,0.9,11.3,1.4,16.9c0.2,2.1,0.1,4.2-0.5,6.2
	c-1.5,5.1-2.8,10.3-4.3,15.4c-0.4,1.3-0.2,2.8,0.6,3.9c8.9,14.3,17.7,28.6,26.5,42.9c0.8,1.2,1.3,2.7,1.3,4.2
	c0.3,8.2,0.6,16.5,0.9,24.7c0.1,1.2-0.2,2.5-0.7,3.6c-3.8,9.3-7.5,18.7-11.4,27.9c-1.2,2.7-1.9,5.7-1.8,8.7c0,2.7-0.3,5.3-0.4,7.9
	c-0.7,0.3-1.1-0.2-1.4-0.5c-14-11.6-27.9-23.2-41.9-34.8c-1.6-1.4-1.6-1.9,0.2-3c8.7-5.4,17.4-10.8,26.1-16.3
	C516.7,475.3,517.4,474.9,518.5,474.2z"/>
<path class="st0" d="M438.5,428.6c0.8,0.1,1.6,0.5,2.1,1.1c13,9.1,26.1,18.2,39.1,27.3c1.5,1,1.9,2,1.5,3.9
	c-4,19-7.8,38.1-11.7,57.2c-0.4,1.6-0.1,3.3,0.7,4.8c1.6,3,3,6.1,4.5,9.1c-0.7,0.8-1.5,0.5-2.2,0.5c-15.9,0-31.8,0-47.7,0.1
	c-1.4,0.1-2.7-0.7-3.2-2.1c-1.1-2.6-2.4-5.1-3.8-7.6c-0.9-1.4-0.9-3.2-0.2-4.7c6.6-15.7,13.1-31.5,19.7-47.2c0.8-1.9,1.2-3.9,1.2-6
	C438.5,452.9,438.5,440.9,438.5,428.6z"/>
<path class="st0" d="M658.7,371.1c-29.4,0-56.3-8.8-81.2-24c-8.8-5.4-17.2-11.5-24.9-18.4c-1.5-1.3-1.4-2.2-0.3-3.6
	c6.1-7.8,14.2-9.9,23.6-8.9c3.3,0.4,6.4,1.7,9,3.7c20.1,14.8,41.8,26.3,66.2,32.3c13.7,3.4,27.8,4.4,41.9,3.1
	c3.3-0.3,6.7-0.2,10-0.2c1.4,0,3,0.1,3.6,1.6c0.7,1.7-0.4,3-1.6,4.2c-2.5,2.2-5.4,3.9-8.6,4.8c-10.4,3.6-21.2,5-32.1,5.4
	C662.3,371.1,660.5,371.1,658.7,371.1z"/>
<path class="st0" d="M584.2,360.3c9.8,5.7,20.3,10,31.3,12.9c2.7,0.7,5.5,1.3,8.3,1.7c1.7,0.2,1.9,0.9,1.7,2.3
	c-0.3,4.2-1.2,8.2-2.8,12.1c-5.9,13.8-12.7,27.1-18.4,41c-2.4,5.8-4.8,11.5-6,17.7c-1.4,7,3.5,12.1,10.5,10.8
	c1.9-0.3,2.5,0.1,2.8,1.9c0.5,2.8,0.8,5.6,0.8,8.4c0.1,1.4-0.6,2.6-1.9,3.2c-7.8,4-15.3,2.6-22.1-2.2c-7.2-5-10-12.7-10.4-21.2
	c-0.6-10.5,0.8-20.9,2.2-31.4c1.8-13.4,4.6-26.6,5.9-40c0.4-4.4-1-8.6-1.4-12.9C584.7,363.3,584.5,362,584.2,360.3z"/>
<path class="st4" d="M544.7,264.2l-38,5.3c0.1-1.1,1-1.4,1.6-2c6.8-6,13.6-12,20.5-17.9c0.7-0.6,1.3-1.8,2.4-0.5L544.7,264.2z"/>
</svg>
