<?xml version="1.0" encoding="utf-8"?>
<!-- Generator: Adobe Illustrator 22.0.1, SVG Export Plug-In . SVG Version: 6.00 Build 0)  -->
<svg version="1.1" id="Layer_1" xmlns="http://www.w3.org/2000/svg" xmlns:xlink="http://www.w3.org/1999/xlink" x="0px" y="0px"
	 viewBox="0 0 975.2 240" style="enable-background:new 0 0 975.2 240;" xml:space="preserve">
<style type="text/css">
	.st0{fill:#68AC48;}
	.st1{fill:url(#SVGID_1_);}
	.st2{fill:url(#SVGID_2_);}
	.st3{fill:url(#SVGID_3_);}
	.st4{fill:url(#SVGID_4_);}
	.st5{fill:url(#SVGID_5_);}
</style>
<title>Nigeria-Logo</title>
<path class="st0" d="M31,67.7c13.6,9.4,25.8,16.4,43.4,22.2L89,4.6L39.3,5L31,67.7z M21.9,120.5L3.3,236.7h48.2l13.9-87.6
	C48.2,141,37.8,138.1,21.9,120.5z"/>
<linearGradient id="SVGID_1_" gradientUnits="userSpaceOnUse" x1="184.4138" y1="200.2229" x2="232.0138" y2="137.4729" gradientTransform="matrix(1 0 0 -1 0 240)">
	<stop  offset="0.76" style="stop-color:#68AC48"/>
	<stop  offset="0.78" style="stop-color:#6EAF4F"/>
	<stop  offset="0.81" style="stop-color:#7FB863"/>
	<stop  offset="0.84" style="stop-color:#9CC784"/>
	<stop  offset="0.88" style="stop-color:#C3DBB1"/>
	<stop  offset="0.89" style="stop-color:#CFE1BF"/>
	<stop  offset="0.91" style="stop-color:#A4C6A2"/>
	<stop  offset="0.93" style="stop-color:#4E9066"/>
	<stop  offset="0.95" style="stop-color:#176D41"/>
	<stop  offset="0.96" style="stop-color:#026032"/>
</linearGradient>
<polygon class="st1" points="177.3,6.4 162.8,98.3 212,91.7 222.2,23.9 222.2,23.8 222.7,20.6 222.8,20.6 225.1,6.4 "/>
<linearGradient id="SVGID_2_" gradientUnits="userSpaceOnUse" x1="288.5471" y1="216.4378" x2="356.0771" y2="127.4178" gradientTransform="matrix(1 0 0 -1 0 240)">
	<stop  offset="0.76" style="stop-color:#68AC48"/>
	<stop  offset="0.78" style="stop-color:#6EAF4F"/>
	<stop  offset="0.81" style="stop-color:#7FB863"/>
	<stop  offset="0.84" style="stop-color:#9CC784"/>
	<stop  offset="0.88" style="stop-color:#C3DBB1"/>
	<stop  offset="0.89" style="stop-color:#CFE1BF"/>
	<stop  offset="0.91" style="stop-color:#A4C6A2"/>
	<stop  offset="0.93" style="stop-color:#4E9066"/>
	<stop  offset="0.95" style="stop-color:#176D41"/>
	<stop  offset="0.96" style="stop-color:#026032"/>
</linearGradient>
<path class="st2" d="M271,6.4h-32.3l-2.5,14.3l32.4,0.3c3-0.2,31,3.8,27.9,35.7c-0.5,5.5-7,28.9-10.1,32.4
	c15.7,2.9,26.9,5,37.3,11.2c12.4-9.1,22.1-24.2,24.5-40.2C355.6,10.5,312.9,6.4,271,6.4z"/>
<linearGradient id="SVGID_3_" gradientUnits="userSpaceOnUse" x1="253.118" y1="-20.546" x2="291.058" y2="93.274" gradientTransform="matrix(1 0 0 -1 0 240)">
	<stop  offset="0.22" style="stop-color:#68AC48"/>
	<stop  offset="0.33" style="stop-color:#63A847"/>
	<stop  offset="0.46" style="stop-color:#559E44"/>
	<stop  offset="0.59" style="stop-color:#3E8C3F"/>
	<stop  offset="0.73" style="stop-color:#1D7438"/>
	<stop  offset="0.83" style="stop-color:#026032"/>
</linearGradient>
<path class="st3" d="M289.6,146c2.8,15.7,4.5,26.4-3.4,45.8c-7.6,18.7-31.7,31.4-43.4,30.7l-39.5-0.1l-2.1,11.7H246
	c59.7,3.9,81.6-17.8,96.5-54.1C336.6,168.7,332.2,152.5,289.6,146z"/>
<linearGradient id="SVGID_4_" gradientUnits="userSpaceOnUse" x1="165.5412" y1="55.1909" x2="209.7512" y2="-3.0891" gradientTransform="matrix(1 0 0 -1 0 240)">
	<stop  offset="0.76" style="stop-color:#68AC48"/>
	<stop  offset="0.78" style="stop-color:#6EAF4F"/>
	<stop  offset="0.81" style="stop-color:#7FB863"/>
	<stop  offset="0.84" style="stop-color:#9CC784"/>
	<stop  offset="0.88" style="stop-color:#C3DBB1"/>
	<stop  offset="0.89" style="stop-color:#CFE1BF"/>
	<stop  offset="0.91" style="stop-color:#A4C6A2"/>
	<stop  offset="0.93" style="stop-color:#4E9066"/>
	<stop  offset="0.95" style="stop-color:#176D41"/>
	<stop  offset="0.96" style="stop-color:#026032"/>
</linearGradient>
<polygon class="st4" points="153.2,158.2 141.7,234.1 189.7,234.1 192.1,218.8 192.3,217.3 202.1,152.3 "/>
<linearGradient id="SVGID_5_" gradientUnits="userSpaceOnUse" x1="0" y1="125.495" x2="346.3198" y2="125.495" gradientTransform="matrix(1 0 0 -1 0 240)">
	<stop  offset="0.76" style="stop-color:#68AC48"/>
	<stop  offset="0.78" style="stop-color:#6EAF4F"/>
	<stop  offset="0.81" style="stop-color:#7FB863"/>
	<stop  offset="0.84" style="stop-color:#9CC784"/>
	<stop  offset="0.88" style="stop-color:#C3DBB1"/>
	<stop  offset="0.89" style="stop-color:#CFE1BF"/>
	<stop  offset="0.91" style="stop-color:#A4C6A2"/>
	<stop  offset="0.93" style="stop-color:#4E9066"/>
	<stop  offset="0.95" style="stop-color:#176D41"/>
	<stop  offset="0.96" style="stop-color:#026032"/>
</linearGradient>
<path class="st5" d="M0,62.4c0,0,59.6,47.1,125.3,47.1s74.9-12.9,134.3-12.9c60.9,0,91.6,17.9,86.1,70c0,0-10-32.7-73.4-32.7
	s-75.8,15.8-137.9,15.8S19.7,126.1,0,62.4z"/>
<path class="st0" d="M442.8,1h17.2l-5.5,38.4h45.1L505,1h17.2l-13.6,96.4h-17.2l6-42.5h-45.1l-6,42.5h-17.2L442.8,1z"/>
<path class="st0" d="M545.5,70.5c-0.3,9.7,6.3,15.5,15.4,15.5c8.2,0,14-3.8,18.8-8.9l10.5,8.9c-9,9.4-19.2,13.1-29.6,13.1
	c-19.8,0-33.5-13.8-30.7-34.3s20.6-34.3,40.3-34.3c18.3,0,28.9,12.8,25.6,35.6l-0.5,4.5L545.5,70.5z M580.7,58.2
	c1.2-9.5-4.1-15.5-14.3-15.5c-9.7,0-16.6,6.1-19.2,15.5H580.7z"/>
<path class="st0" d="M616,32h16.3l-1.4,10.4h0.3c4.4-7.4,12.4-12,21-12c1.9,0,3.9,0.3,5.7,1l-2.2,15.8c-2.5-0.7-5.1-1.2-7.8-1.2
	c-15.4,0-19.3,13-19.9,16.5l-4.9,35h-16.4L616,32z"/>
<path class="st0" d="M669.2,32h16.4l-9.1,65.4h-16.4L669.2,32z M681.8,0c6,0,10.1,4.2,9.3,9.8s-6,9.8-12,9.8s-9.7-4.6-9-9.8
	C671.1,4.1,676,0,681.8,0L681.8,0z"/>
<path class="st0" d="M694.8,45.9l1.9-13.9h13.5l2.7-18.9h16.3L726.6,32h18l-1.9,13.9h-18l-4,28.6c-1,6.5,0.4,10.6,7.6,10.6
	c2.9,0,6.8-0.5,9.1-2l-1.9,13.7c-3.7,1.6-9.5,2.2-13.4,2.2c-17.3,0-20.3-7.8-18.1-23.2l4.2-30L694.8,45.9z"/>
<path class="st0" d="M790.4,88.4H790c-5.6,7.4-13.8,10.6-22.5,10.6c-12.1,0-22.9-6.7-21-19.6c2.9-21.3,27.9-22.8,44.3-22.8h4.1
	l0.3-1.8c1.1-8-4.5-12.3-13.2-12.3c-6.8,0.1-13.3,2.5-18.5,6.8l-7.3-8.6c8.3-7.4,18.9-10.5,29.3-10.5c27.9,0,25.1,20.2,23.8,29.4
	l-5.3,37.6h-14.7L790.4,88.4z M792.3,68.1h-3.4c-9,0-24.5,0.7-25.9,10.1c-0.8,6,4.9,8.6,10.2,8.6c11.2,0,17.3-5.9,18.5-15
	L792.3,68.1z"/>
<path class="st0" d="M897.9,32l-8.3,59.6c-3.3,23.6-16.9,38.6-42.4,38.6c-12.1,0-22.8-2.6-30.9-10.8L828,106c5.7,6,12,9.4,21.1,9.4
	c15.8,0,22.1-9,23.8-21.9l0.7-4.8h-0.3c-5.7,6.4-14.6,9.5-22.8,9.5c-19.6,0-30.4-15-27.8-33.5c2.7-19.3,16.9-34.3,37.1-34.3
	c9.1,0,17.2,3.5,20.8,11.4h0.3l1.4-9.8L897.9,32z M839.2,64.6c-1.5,10.4,5.5,18.9,16.5,18.9c12.1,0,20.7-8.3,22.2-19.2
	c1.6-11.3-4.8-19.2-16.6-19.2C849.8,45.1,840.8,53,839.2,64.6L839.2,64.6z"/>
<path class="st0" d="M924.2,70.5c-0.3,9.7,6.3,15.5,15.4,15.5c8.2,0,14-3.8,18.8-8.9l10.5,8.9c-9,9.4-19.2,13.1-29.6,13.1
	c-19.8,0-33.5-13.8-30.7-34.3s20.6-34.3,40.3-34.3c18.3,0,28.9,12.8,25.6,35.6l-0.5,4.5L924.2,70.5z M959.3,58.2
	c1.2-9.5-4.1-15.5-14.3-15.5c-9.7,0-16.6,6.1-19.2,15.5H959.3z"/>
<path class="st0" d="M442.8,141.9h37.6c14.6,0,28.6,6.7,26,24.3c-1.5,10.9-9.3,18.1-19.6,21.1l-0.1,0.3c12,1.4,19.3,10.9,17.6,23.3
	c-2.9,21-22.1,27.5-40.3,27.5h-34.7L442.8,141.9z M448.3,223.7h15.8c8.9,0,21.4-1.5,23.2-14.2c1.4-10.1-4.6-13.6-18.5-13.6h-16.5
	L448.3,223.7z M454.3,181.1H470c11.5,0,17.9-4.9,18.9-12.1c1.1-8.3-4.1-12.4-17-12.4h-14.2L454.3,181.1z"/>
<path class="st0" d="M558,229.4h-0.4c-5.6,7.4-13.8,10.6-22.5,10.6c-12.1,0-22.9-6.7-21-19.6c2.9-21.3,27.9-22.8,44.3-22.8h4.1
	l0.3-1.8c1.1-8-4.5-12.3-13.2-12.3c-6.8,0.1-13.3,2.5-18.5,6.8l-7.4-8.6c8.3-7.4,19-10.5,29.3-10.5c27.9,0,25.1,20.2,23.8,29.4
	l-5.3,37.6h-14.7L558,229.4z M559.9,209.1h-3.4c-9,0-24.5,0.7-25.9,10.1c-0.8,6,4.9,8.6,10.2,8.6c11.2,0,17.3-5.9,18.5-15
	L559.9,209.1z"/>
<path class="st0" d="M598.2,173h15.5l-1.4,10.5h0.3c3.8-6.5,10.8-12.1,21.7-12.1c17.6,0,22.1,12.4,20.3,25.8l-5.9,41.3h-16.3
	l4.6-33.1c1.1-7.2,2.2-19.2-9.3-19.2c-10.8,0-16.1,7.9-17.3,16.6l-5,35.7h-16.4L598.2,173z"/>
<path class="st0" d="M681.8,135.3h16.3l-9.1,64.7l29-27.1h21l-32.2,29.7l24.8,35.7H710L688.6,205h-0.3l-4.6,33.4h-16.4L681.8,135.3z
	"/>
</svg>
