<?xml version="1.0" encoding="utf-8"?>
<!-- Generator: Adobe Illustrator 22.0.1, SVG Export Plug-In . SVG Version: 6.00 Build 0)  -->
<svg version="1.1" id="Layer_1" xmlns="http://www.w3.org/2000/svg" xmlns:xlink="http://www.w3.org/1999/xlink" x="0px" y="0px"
	 viewBox="0 0 988.1 411.5" style="enable-background:new 0 0 988.1 411.5;" xml:space="preserve">
<style type="text/css">
	.st0{fill:#133F77;}
	.st1{fill:#78C2ED;stroke:#FFFFFF;stroke-width:1.1882;stroke-miterlimit:10;}
	.st2{fill:#123F76;stroke:#FFFFFF;stroke-width:1.1946;stroke-miterlimit:10;}
	.st3{fill:#0F9CDA;stroke:#FFFFFF;stroke-width:1.1882;stroke-miterlimit:10;}
	.st4{fill:#FFFFFF;}
</style>
<title>Nigeria-Logo</title>
<path class="st0" d="M30,0h928.2c16.6,0,30,13.4,30,30v351.6c0,16.6-13.4,30-30,30H30c-16.6,0-30-13.4-30-30V30C0,13.4,13.4,0,30,0z
	"/>
<path class="st1" d="M120.3,139.3H196c0.3,0,0.5,0.2,0.5,0.5c0,0.1,0,0.1,0,0.2L179,200.1c-0.1,0.2-0.3,0.4-0.5,0.4H94.8
	c-0.4,0-0.7-0.3-0.7-0.7c0-0.1,0-0.2,0.1-0.3l25.6-59.9C119.9,139.4,120.1,139.3,120.3,139.3z"/>
<path class="st2" d="M179.3,201.3l17.5-60.4c0-0.1,0.2-0.2,0.3-0.1c0.1,0,0.1,0.1,0.1,0.1l18,64.3c0,0,0,0.1,0,0.1l-17.5,60.4
	c0,0.1-0.1,0.2-0.3,0.2c-0.1,0-0.2-0.1-0.2-0.2l-18.1-64.3C179.3,201.4,179.3,201.3,179.3,201.3z"/>
<path class="st3" d="M178.4,201.1l-84-0.4c-0.2,0-0.4,0.2-0.4,0.4c0,0,0,0.1,0,0.1l24,66.4c0.1,0.1,0.2,0.2,0.3,0.2l78.1-1.5
	c0.2,0,0.4-0.2,0.4-0.4c0,0,0-0.1,0-0.1l-18.1-64.5C178.6,201.2,178.5,201.1,178.4,201.1z"/>
<path class="st1" d="M208.5,201.5h75.7c0.3,0,0.5,0.3,0.5,0.6c0,0,0,0.1,0,0.1l-17.5,60.1c-0.1,0.2-0.3,0.4-0.5,0.4h-83.6
	c-0.4,0-0.7-0.3-0.7-0.7c0-0.1,0-0.2,0.1-0.3l25.6-60C208.2,201.6,208.3,201.5,208.5,201.5z"/>
<path class="st2" d="M267.5,263.5l17.5-60.4c0-0.1,0.1-0.2,0.3-0.2c0.1,0,0.2,0.1,0.2,0.2l18,64.3c0,0,0,0.1,0,0.1L286,327.9
	c0,0.1-0.2,0.2-0.3,0.1c-0.1,0-0.1-0.1-0.1-0.1l-18.1-64.3C267.5,263.6,267.5,263.5,267.5,263.5z"/>
<path class="st3" d="M266.5,263.3l-84-0.4c-0.2,0-0.4,0.2-0.4,0.4c0,0,0,0.1,0,0.1l24.1,66.4c0.1,0.1,0.2,0.2,0.4,0.2l78.1-1.5
	c0.2,0,0.4-0.2,0.4-0.4c0,0,0-0.1,0-0.1l-18.1-64.5C266.8,263.4,266.7,263.3,266.5,263.3z"/>
<path class="st1" d="M209.1,76.5h75.7c0.3,0,0.5,0.2,0.5,0.5c0,0.1,0,0.1,0,0.2l-17.5,60.1c-0.1,0.2-0.3,0.4-0.5,0.4h-83.6
	c-0.4,0-0.7-0.3-0.7-0.7c0-0.1,0-0.2,0.1-0.3l25.6-59.9C208.7,76.6,208.9,76.4,209.1,76.5z"/>
<path class="st2" d="M268.1,138.5l17.5-60.4c0-0.1,0.1-0.2,0.3-0.2c0.1,0,0.2,0.1,0.2,0.2l18,64.3c0,0,0,0.1,0,0.1l-17.5,60.4
	c0,0.1-0.1,0.2-0.3,0.2c-0.1,0-0.2-0.1-0.2-0.2l-18-64.3C268,138.6,268,138.5,268.1,138.5z"/>
<path class="st3" d="M267.1,138.3l-84-0.4c-0.2,0-0.4,0.2-0.4,0.4c0,0,0,0.1,0,0.1l24.1,66.4c0.1,0.1,0.2,0.2,0.4,0.2l78.1-1.5
	c0.2,0,0.4-0.1,0.4-0.3c0,0,0-0.1,0-0.1l-18.1-64.5C267.4,138.4,267.3,138.3,267.1,138.3z"/>
<path class="st4" d="M394.5,213c2.6-2,4.4-3.9,5.2-5.6c0.9-1.8,1.3-3.7,1.2-5.7v-69.2c0.1-2-0.2-3.9-0.8-5.8c-1.1-2.1-2.4-4.1-4-5.9
	h27c-1.8,1.7-3.4,3.7-4.6,5.9c-0.9,1.8-1.3,3.8-1.3,5.8v69.2c0,0.9,0.1,1.9,0.3,2.8c0.2,1,0.6,1.9,1,2.8c0.5,1,1.1,2,1.8,2.8
	c0.9,1,1.9,2,3,2.8L394.5,213z M418.1,164.6l23.8-32.1c1.4-1.7,2.2-3.9,2.3-6.1c0-1.6-0.9-3.5-2.8-5.5h27.1L435,162.4
	c5.8,8.7,10.7,15.7,14.7,21c4.1,5.3,8.3,10.3,12.8,15.1c2.6,2.7,5.3,5.3,8.1,7.8c1.5,1.4,3.1,2.6,4.8,3.8c1.6,1.1,3.3,2.1,5,3h-20.3
	c-1.8-0.1-3.5-0.5-5-1.4c-4.1-1.6-10.1-8.1-18-19.4l-14.5-20.7L418.1,164.6z"/>
<path class="st4" d="M532.6,181.3h-46.5c0.1,2.3,0.5,4.5,1,6.8c0.5,1.8,1.3,3.5,2.2,5.1c4.4,7.5,11.4,11.2,21,11.2
	c4,0,8-0.7,11.7-2.2c1.6-0.6,3.2-1.2,4.8-2c1.5-0.7,3.5-1.9,6.1-3.4l-9.5,16.1c-2.3,0.9-4.7,1.5-7.2,1.9c-2.5,0.4-5,0.5-7.5,0.5
	c-11.7,0-21-3.2-28.1-9.6S470,191,470,180.4c0-9.8,3.2-17.9,9.5-24.4s14.3-9.7,23.8-9.7c9.5,0,16.8,3,21.8,8.9
	C530.2,161.2,532.7,169.9,532.6,181.3z M502.5,156c-3.7-0.2-7.4,1.2-10.1,3.7c-2.6,2.5-4.3,6-5.1,10.7h29.2
	c0.2-3.9-1.2-7.7-3.9-10.5C509.9,157.4,506.2,155.9,502.5,156L502.5,156z"/>
<path class="st4" d="M524.4,244.8l11.4-13.2c1.9,1.9,4.5,3,7.2,3.1c2.4,0.1,4.7-0.8,6.3-2.4c1-1.2,1.9-2.6,2.7-4
	c1-1.7,1.8-3.5,2.4-5.4l3.3-9.2l-20.3-48.9c-2.4-5.9-4.2-9.6-5.2-11.1c-1.1-1.5-3.2-3.4-6.3-5.5l6.4,0.5c1,0,2-0.1,3-0.2
	c1.1-0.1,2.3-0.3,3.3-0.5c1.1-0.2,2.1-0.4,3.1-0.8c1.7-0.7,3.2-1.3,4.4-1.8l19.5,48.6l12.9-33.6c0.9-2.2,1.5-4.5,1.8-6.9
	c0-0.9-0.2-1.9-0.7-2.7c-0.7-1.1-1.6-2.2-2.6-3h22l-33.3,78.8c-1.2,2.9-2.6,5.7-4.1,8.3c-5,8-13.3,12-24.9,12
	C532.5,246.8,528.4,246.1,524.4,244.8z"/>
<path class="st4" d="M594.3,196.7l3.3,2c1.4,0.9,2.8,1.6,4.1,2.3c3,1.3,6.2,2.4,9.4,3.2c3,0.8,6.2,1.2,9.3,1.3c4,0,7.1-0.8,9.4-2.3
	c2.2-1.3,3.5-3.7,3.4-6.3c0.1-2.6-1.3-5.1-3.5-6.5c-1.1-0.7-2.2-1.2-3.4-1.7c-1.3-0.5-3.6-1.3-6.8-2.3c-5.7-1.8-9.3-3-10.8-3.7
	c-2-1-3.9-2.2-5.6-3.7c-3.7-3-5.8-7.6-5.8-12.4c0-6.3,2.4-11.2,7.1-14.8s11.4-5.3,20-5.3c2.5,0,5,0.1,7.5,0.4l6.6,1.3v13
	c-1-0.5-2.3-1.2-4.1-2c-1.8-0.9-3.8-1.6-5.7-2.2c-2-0.6-4.1-0.9-6.1-0.9c-3.4,0-6.1,0.6-8,1.8c-1.8,1-2.9,3-2.9,5.1
	c0,1.1,0.3,2.2,0.8,3.1c0.6,1,1.3,1.9,2.3,2.6c1,0.7,2.1,1.3,3.3,1.8c1.2,0.5,3.2,1.1,6.1,1.9c4.4,1.1,8.7,2.6,12.8,4.4
	c2.5,1.3,4.8,3.2,6.6,5.4c2.3,2.7,3.5,6.4,3.5,11c0.2,6.1-2.3,12-6.9,16.1c-4.6,4.2-10.6,6.3-18,6.3c-4,0.1-8-0.2-11.9-0.9l-6.8-1.4
	l-3-0.4L594.3,196.7z"/>
<path class="st4" d="M646.5,157.1v-5.6c5.5-0.7,9.5-2.8,11.9-6.4c2.4-3.6,3.6-9.2,3.6-16.7v-1.6h7.2v21h16.7v13.8l-1.1-1
	c-0.7-0.7-1.5-1.3-2.3-1.9c-0.8-0.5-1.6-0.9-2.5-1.1c-1.2-0.3-2.5-0.5-3.7-0.4h-7v35.1c0,1.3,0,2.7,0.1,4c0.2,0.8,0.5,1.6,1,2.3
	c1.1,1.6,2.7,2.9,4.6,3.6c2.2,0.9,4.5,1.4,6.9,1.4l2.6-0.1l-8.7,11.4c-3.7-0.3-7.3-1.1-10.8-2.3c-2.6-1.1-4.9-2.9-6.7-5.1
	c-1.4-1.6-2.4-3.5-3-5.5c-0.6-2.7-0.9-5.5-0.8-8.3v-36.5H646.5z"/>
<path class="st4" d="M684.7,179.9c0-10.1,3.5-18.5,10.5-25.2s15.7-10,26.3-10c10.4,0,18.8,3.2,25.2,9.7c6.4,6.5,9.6,15,9.6,25.7
	c0,10.2-3.4,18.6-10.3,25.3s-15.6,10-26.3,10c-10.5,0-19-3.3-25.3-9.8S684.7,190.6,684.7,179.9z M700.2,179v1.1
	c0,7.1,2.1,13,6.3,17.7c3.8,4.6,9.4,7.2,15.4,7.1c5.4,0.1,10.5-2.5,13.7-6.8c3.5-4.6,5.3-10.4,5.3-17.6c0-7.4-1.9-13.5-5.8-18.1
	c-3.7-4.6-9.2-7.2-15.1-7c-5.5-0.2-10.7,2.2-14.2,6.5C702,166.3,700.2,172,700.2,179z"/>
<path class="st4" d="M760.1,148.4l4.7,0.1l5.8-0.4c1.4-0.2,2.8-0.5,4.2-0.9c1.2-0.3,2.9-0.9,5.2-1.6v8.9c4.7-5.8,11.9-9.1,19.4-8.9
	c15.8,0,23.7,7.9,23.7,23.5v34.3c0,0.6,0.1,1.3,0.2,1.9l0.4,1.4c0.7,2.4,2.2,4.6,4.1,6.1h-24.8c1.7-1.2,3-2.7,3.9-4.6
	c0.8-2.5,1.1-5.2,1-7.8v-33.7c-0.7-6.6-5.1-9.9-12.9-9.9c-5.3,0-9.2,1.4-11.8,4.1c-1.2,1.1-2.1,2.5-2.6,4c-0.5,2.6-0.7,5.3-0.6,8
	v27.4c-0.1,2.5,0.3,5,1,7.4c0.8,2,2.2,3.7,3.9,5.1h-24.5c0.7-0.6,1.3-1.3,1.9-2c0.3-0.3,0.6-0.7,0.8-1.1c0.6-0.8,1.1-1.8,1.4-2.8
	l0.4-3.3v-42.2c0.1-2.7-0.2-5.5-0.8-8.1C763.2,151.4,761.8,149.7,760.1,148.4z"/>
<path class="st4" d="M894.6,181.3h-46.5c0.1,2.3,0.5,4.5,1,6.8c0.5,1.8,1.3,3.5,2.2,5.1c4.4,7.5,11.4,11.2,21,11.2
	c4,0,8-0.7,11.7-2.2c1.6-0.6,3.2-1.2,4.8-2c1.5-0.7,3.5-1.9,6.1-3.4l-9.5,16.1c-2.3,0.9-4.7,1.5-7.2,1.9c-2.5,0.4-5,0.5-7.5,0.5
	c-11.7,0-21-3.2-28.1-9.6S832,191,832,180.4c0-9.8,3.2-17.9,9.5-24.4c6.3-6.5,14.3-9.7,23.8-9.7c9.5,0,16.8,3,21.8,8.9
	C892.2,161.2,894.7,169.9,894.6,181.3z M864.5,156c-3.7-0.2-7.4,1.2-10.1,3.7c-2.6,2.5-4.3,6-5.1,10.7h29.2
	c0.2-3.9-1.2-7.7-3.9-10.5C871.9,157.4,868.3,155.9,864.5,156L864.5,156z"/>
<path class="st4" d="M394.9,333.6c1.2-0.9,2.2-1.8,3.2-2.9c0.7-0.8,1.3-1.7,1.8-2.6c0.9-1.8,1.3-3.8,1.3-5.8V253
	c0.1-2-0.3-3.9-1.1-5.7c-1.1-2.2-2.6-4.1-4.4-5.8h26.9c9.4,0,17,1.2,22.7,3.7c3.4,1.5,6.3,3.9,8.4,7c2,3.2,3.1,6.9,3,10.6
	c0.2,4.4-1.5,8.6-4.5,11.8c-1.1,1.2-2.4,2.3-3.8,3.2c-1.8,1-3.7,1.9-5.7,2.6c2.6,0.3,5.1,0.9,7.5,1.8c1.9,0.8,3.7,1.9,5.4,3.2
	c5.6,4.4,8.4,10.5,8.4,18.3c0,3.2-0.5,6.3-1.6,9.3c-1,3-2.6,5.9-4.5,8.4c-3.6,4.5-8.4,7.8-13.9,9.5c-5.6,1.8-13.4,2.8-23.5,2.8
	L394.9,333.6z M416.9,251.7v27.3c1.3,0.2,2.6,0.3,3.9,0.4c6.9,0,11.8-1.3,14.7-4c2.8-2.6,4.3-6.3,4.3-10.1c0-4.4-1.4-7.9-4.3-10.3
	s-6.9-3.7-12.2-3.7L416.9,251.7z M416.9,288.4v33c1.9,0.5,3.9,1,5.9,1.3c1.6,0.2,3.3,0.3,4.9,0.3c5.8,0,10.5-1.7,14.2-5
	c6.3-5.9,7.4-15.4,2.7-22.5c-2-2.8-5-4.8-8.3-5.7c-3.9-1.1-8-1.7-12.1-1.6L416.9,288.4z"/>
<path class="st4" d="M475.3,283.8l10.2-15.3c2.8-0.7,4.8-1.1,6-1.3c1.9-0.2,3.8-0.3,5.8-0.3c8.2,0,14.4,1.8,18.7,5.5
	c1.7,1.4,3.1,3.2,3.9,5.2c0.6,1.7,0.8,4.8,0.8,9.2v27c-0.1,2,0.1,4.1,0.6,6.1c0.5,1.3,1.5,2.3,2.7,2.9c1.9,0.9,4.1,1.3,6.2,1.2h2.7
	l-7.9,11.1c-1.3,0.4-2.6,0.6-4,0.7c-3.9,0-7.6-1.4-10.5-4c-3.1-2.7-4.6-5.7-4.6-9.1v-21.8l-3.5,1.2l-5.7,1.3
	c-3.8,0.9-7.4,2.2-10.8,4c-2.7,1.6-4,4.2-4,7.8c-0.1,2.9,1.1,5.6,3.4,7.4c2.3,1.8,5.3,2.7,9.2,2.7c1.4,0,2.9-0.1,4.3-0.4
	c2-0.4,4-1,5.9-1.6l-7.3,10.8c-2.1,0.6-4,1-5.5,1.3c-1.4,0.3-2.9,0.4-4.3,0.5c-5.6,0-10.9-2.3-14.7-6.4c-4.1-3.9-6.4-9.3-6.3-15
	c0-9.7,7-15.9,21-18.6l7.2-1.5c4-0.8,6.9-1.7,8.4-2.9c1.6-1.1,2.5-3,2.4-4.9c0.1-2.3-0.9-4.4-2.7-5.8c-2.2-1.5-4.8-2.2-7.5-2
	c-2.1,0.1-4.2,0.3-6.2,0.6c-3.1,0.8-5.3,1.3-6.5,1.7S479,282.3,475.3,283.8z"/>
<path class="st4" d="M529.8,269l4.7,0.1l5.8-0.4c1.4-0.2,2.8-0.5,4.2-0.9c1.2-0.3,2.9-0.8,5.2-1.6v9c4.7-5.9,11.9-9.2,19.4-9
	c15.8,0,23.7,7.8,23.7,23.5v34.3c0,0.6,0.1,1.3,0.2,1.9c0.2,0.6,0.3,1.1,0.4,1.4c0.7,2.4,2.2,4.6,4.1,6.1h-24.8
	c1.7-1.1,3-2.7,3.9-4.6c0.8-2.5,1.1-5.2,1-7.8v-33.7c-0.7-6.6-5.1-9.9-12.9-9.9c-5.3,0-9.2,1.4-11.8,4.1c-1.2,1.1-2.1,2.5-2.6,4
	c-0.5,2.6-0.7,5.3-0.6,8v27.4c-0.1,2.5,0.3,5,1,7.4c0.8,2,2.2,3.7,3.9,5.1h-24.5c0.7-0.6,1.3-1.3,1.9-2c0.3-0.3,0.6-0.7,0.8-1.1
	c0.6-0.8,1.1-1.8,1.4-2.8l0.4-3.3v-42.2c0.1-2.7-0.2-5.5-0.8-8.1C533,272,531.6,270.3,529.8,269z"/>
<path class="st4" d="M602.6,241.7l4.7,0.1c5.1-0.1,10.1-1.1,14.9-2.8v85.2c0.1,1.1,0.3,2.2,0.5,3.3c0.2,1.2,0.6,2.3,1.2,3.4
	c0.8,1.1,1.7,2,2.7,2.8h-24.1c1.5-1.3,2.6-3,3.3-4.8c0.7-2.5,1-5,0.8-7.6v-67.8c0.1-2.5-0.1-4.9-0.7-7.3
	C605.3,244.3,604.1,242.8,602.6,241.7z M622.7,296.7l15-17.6c2.4-2.6,3.5-5,3.5-7c0-1-0.7-2.3-2.1-3.7H662l-23.2,27.2l24.9,30.9
	c2.4,2.9,5.4,5.3,8.8,7.2h-16.2c-2.3,0.1-4.6-0.3-6.6-1.3c-1.5-0.8-3.2-2.6-5.2-5.4L622.7,296.7z"/>
<path class="st1" d="M279.1,142.1h75.7c0.3,0,0.5,0.3,0.5,0.6c0,0,0,0.1,0,0.1L337.7,203c-0.1,0.2-0.3,0.4-0.5,0.4h-83.6
	c-0.4,0-0.7-0.3-0.7-0.7c0-0.1,0-0.2,0.1-0.3l25.6-59.9C278.6,142.2,278.8,142.1,279.1,142.1z"/>
<path class="st2" d="M338.1,204.1l17.5-60.4c0-0.1,0.1-0.2,0.3-0.2c0.1,0,0.2,0.1,0.2,0.2l18,64.3c0,0,0,0.1,0,0.1l-17.5,60.4
	c0,0.1-0.1,0.2-0.3,0.2c-0.1,0-0.2-0.1-0.2-0.2l-18-64.3C338.1,204.2,338.1,204.2,338.1,204.1z"/>
<path class="st3" d="M337.1,203.9l-84-0.4c-0.2,0-0.4,0.2-0.4,0.4c0,0,0,0.1,0,0.1l24.1,66.4c0,0.1,0.2,0.2,0.3,0.2l78.1-1.5
	c0.2,0,0.4-0.1,0.4-0.3c0,0,0-0.1,0-0.1l-18.1-64.5C337.4,204,337.2,203.9,337.1,203.9z"/>
</svg>
