<?xml version="1.0" standalone="no"?>
<!DOCTYPE svg PUBLIC "-//W3C//DTD SVG 20010904//EN"
 "http://www.w3.org/TR/2001/REC-SVG-20010904/DTD/svg10.dtd">
<svg version="1.0" xmlns="http://www.w3.org/2000/svg"
 width="400.000000pt" height="400.000000pt" viewBox="0 0 400.000000 400.000000"
 preserveAspectRatio="xMidYMid meet">

<g transform="translate(0.000000,400.000000) scale(0.100000,-0.100000)"
fill="#000000" stroke="none">
<path d="M0 2000 l0 -2000 2000 0 2000 0 0 2000 0 2000 -2000 0 -2000 0 0
-2000z m2285 709 c19 -33 35 -62 35 -65 0 -2 -144 -4 -320 -4 -210 0 -320 3
-320 10 0 6 14 35 31 65 l31 55 253 0 254 0 36 -61z m103 -176 l34 -63 -427 0
-427 0 20 33 c10 17 28 47 38 65 l18 32 355 -2 354 -3 35 -62z m73 -132 c23
-29 24 -44 3 -76 l-16 -25 -410 0 -409 0 -31 -50 -31 -50 -68 0 c-38 0 -69 3
-69 8 0 4 26 52 58 107 48 83 63 101 88 107 16 3 217 5 448 5 l418 -2 19 -24z
m-67 -198 c-15 -27 -32 -56 -38 -65 -10 -17 -36 -18 -323 -18 l-312 0 -23 -42
-23 -43 -73 -3 c-39 -2 -72 0 -72 4 0 4 8 21 19 38 10 17 37 64 60 104 l42 72
385 0 386 0 -28 -47z m-74 -127 c0 -3 -16 -32 -36 -65 l-36 -61 -213 0 -212 0
-27 -50 -27 -50 -70 0 c-38 0 -69 4 -69 9 0 11 98 180 118 204 14 15 41 17
294 17 153 0 278 -2 278 -4z m-1937 -509 c18 -8 38 -21 45 -30 20 -23 26 -83
12 -116 -17 -43 -54 -63 -127 -69 l-63 -5 0 -54 c0 -53 0 -54 -27 -51 l-28 3
-3 155 c-1 85 0 160 2 167 7 18 146 17 189 0z m2351 -1 c19 -8 37 -19 41 -26
14 -23 9 -79 -9 -99 -18 -19 -17 -21 10 -44 22 -19 28 -33 27 -61 -2 -71 -50
-96 -183 -96 l-90 0 0 170 0 170 85 0 c51 0 99 -6 119 -14z m-1695 -35 c43
-31 65 -76 65 -138 1 -114 -116 -186 -228 -139 -117 49 -111 238 9 292 42 20
116 12 154 -15z m1395 8 c29 -14 33 -31 11 -49 -13 -10 -20 -11 -39 -1 -12 7
-38 11 -57 9 -29 -2 -34 -7 -34 -28 0 -22 8 -28 65 -47 74 -26 90 -42 90 -94
0 -77 -105 -116 -190 -71 -40 22 -45 32 -28 55 12 16 15 16 53 -3 47 -24 64
-25 93 -4 33 23 14 49 -48 64 -70 17 -100 43 -100 86 0 45 13 70 48 89 30 17
91 14 136 -6z m643 -121 c85 -195 81 -178 44 -178 -26 0 -33 6 -45 35 l-15 35
-69 0 c-68 0 -68 0 -85 -35 -13 -26 -23 -35 -42 -35 -14 0 -25 5 -25 10 0 11
93 236 117 283 8 17 22 27 36 27 19 0 31 -20 84 -142z m653 67 c-43 -43 -60
-67 -54 -76 4 -8 32 -46 61 -85 29 -39 53 -74 53 -77 0 -4 -13 -7 -30 -7 -25
0 -38 11 -81 65 -28 36 -53 65 -56 65 -18 0 -42 -50 -43 -88 0 -41 -1 -43 -27
-40 l-28 3 -3 153 -3 152 31 0 30 0 0 -72 1 -73 67 72 c49 53 75 73 97 75 17
2 34 2 39 0 4 -3 -20 -33 -54 -67z m-3015 42 c18 -15 28 -36 32 -64 5 -39 2
-46 -29 -77 l-34 -34 33 -46 c40 -56 41 -66 4 -66 -23 0 -35 10 -66 55 -31 44
-44 55 -66 55 -27 0 -28 -2 -31 -52 -3 -49 -5 -53 -30 -56 l-28 -3 0 155 0
156 94 0 c84 0 98 -3 121 -23z m529 -91 l42 -108 43 111 c41 106 44 111 72
111 16 0 29 -3 29 -8 0 -4 -27 -72 -59 -152 -56 -135 -62 -145 -86 -145 -24 0
-30 10 -86 145 -32 80 -59 148 -59 153 0 5 14 7 31 5 29 -3 33 -9 73 -112z
m294 -38 l-3 -153 -27 -3 -28 -3 0 155 0 156 30 0 31 0 -3 -152z m260 138 c54
-28 75 -62 80 -126 8 -112 -57 -169 -195 -170 l-73 0 0 155 0 155 80 0 c50 0
91 -5 108 -14z m192 -80 c0 -110 10 -143 46 -156 72 -28 104 21 104 160 l0 90
26 0 26 0 -4 -125 c-3 -120 -4 -126 -30 -151 -19 -20 -39 -28 -77 -32 -114
-11 -150 39 -151 206 l0 102 30 0 30 0 0 -94z m1331 -3 l74 -97 3 97 3 97 30
0 30 0 -3 -152 c-3 -148 -4 -153 -25 -156 -17 -3 -37 18 -100 100 l-78 103 -5
-100 c-5 -99 -5 -100 -30 -100 l-25 0 -3 153 -3 152 29 0 c25 0 40 -14 103
-97z"/>
<path d="M256 1522 c-3 -3 -6 -29 -6 -59 l0 -53 53 0 c58 0 87 19 87 56 0 38
-23 55 -77 59 -28 1 -54 0 -57 -3z"/>
<path d="M2596 1523 c-3 -3 -6 -24 -6 -45 l0 -38 60 0 c55 0 61 2 72 25 9 21
9 29 -3 40 -15 15 -112 29 -123 18z"/>
<path d="M2592 1344 l3 -49 65 3 c47 1 68 7 78 19 15 21 15 25 -2 48 -10 14
-30 20 -80 23 l-67 4 3 -48z"/>
<path d="M894 1485 c-49 -34 -55 -122 -11 -163 67 -63 160 -18 160 79 0 78
-88 128 -149 84z"/>
<path d="M2971 1433 c-8 -21 -16 -44 -18 -50 -4 -9 7 -13 36 -13 23 0 41 3 41
7 0 15 -33 93 -39 93 -4 0 -13 -17 -20 -37z"/>
<path d="M560 1450 l0 -50 43 0 c48 0 87 22 87 49 0 31 -33 51 -83 51 l-47 0
0 -50z"/>
<path d="M1670 1400 l0 -100 46 0 c37 0 51 5 75 29 31 31 39 83 19 122 -15 26
-62 49 -105 49 l-35 0 0 -100z"/>
</g>
</svg>
