<?xml version="1.0" encoding="utf-8"?>
<!-- Generator: Adobe Illustrator 22.0.1, SVG Export Plug-In . SVG Version: 6.00 Build 0)  -->
<svg version="1.1" id="Layer_1" xmlns="http://www.w3.org/2000/svg" xmlns:xlink="http://www.w3.org/1999/xlink" x="0px" y="0px"
	 viewBox="0 0 990 377.3" style="enable-background:new 0 0 990 377.3;" xml:space="preserve">
<style type="text/css">
	.st0{fill:#0072A9;}
	.st1{fill:#71B0D1;}
	.st2{fill:#A4D0A0;}
	.st3{fill:#22A947;}
</style>
<title>Nigeria-Logo</title>
<path class="st0" d="M194.1,163.9h-10.3c-6.9,0-9.8-4.4-9.8-10.8v-45.5h20.1V94.8h-20.1V70.6h-14.4v82.3c0,17.4,8.7,24.8,24.2,24.8
	h10.3L194.1,163.9L194.1,163.9z"/>
<path class="st0" d="M55.1,138.5v0.6c0,29.5,24.1,40,46.6,40c22,0,44.2-10.5,44.2-33.9c0-22.6-18.6-28.8-36.1-32.8l-6.1-1.3
	c-15.6-3.4-29.2-6.3-29.2-17.9c0-16.6,17.1-18.5,24.4-18.5c16.1,0,25.5,7.8,27,22.3v0.5h15.2v-0.6c-0.9-22.8-16.1-35.9-41.7-35.9
	c-20.4,0-41,10.3-41,33.2c0,20.5,17.1,25.9,36.2,30.1l3.8,0.8c16.1,3.4,31.3,6.7,31.3,20.5c0,17.1-17.3,19.6-27.7,19.6
	c-8.7,0-16.6-2.2-22.2-6.3c-6.3-4.6-9.6-11.5-9.6-20v-0.6L55.1,138.5z"/>
<path class="st0" d="M281.1,164.3l-0.8,0.3c-1.2,0.5-2.5,0.7-3.8,0.7c-3.5,0-3.6-1.9-3.6-8.4v-41.5c0-15.4-10.1-22.8-30.9-22.8
	c-12.6,0-33.9,3.6-34.8,27.6v0.6h14.4v-0.6c0.5-10,6.8-14.8,19.6-14.8c11.8,0,17.4,4.1,17.4,12.9c0,7.3-7.4,8.4-17.7,9.8
	c-2.9,0.4-5.9,0.8-9,1.4c-14.1,2.7-27.8,6.9-27.8,25.4c0,14.5,10.2,23.3,27.3,23.3c11.5,0,20.8-4.1,28-11.8
	c0.6,9.5,6.6,11.8,11.7,11.8c3.4,0.1,6.8-0.7,9.8-2.4l0.3-0.2L281.1,164.3L281.1,164.3z M234.2,165.3c-4.5,0-15-1.1-15-11.2
	c0-9.8,8-12.6,15.7-14c2.4-0.4,4.9-0.7,7.3-1c6.2-0.8,12.1-1.6,16.1-3.9l0,0v12.6C258.4,154.6,251.8,165.4,234.2,165.3L234.2,165.3z
	"/>
<path class="st0" d="M293.8,94.8v81.9h14.5v-46.2c0-15.4,8.7-24.7,23.3-24.7c9.7,0,15.8,6.1,15.8,15.7v55.2h14.5V123
	c0-20.3-9.3-30.1-28.4-30.1c-11.6,0-20.3,4.5-26,13.6V94.8H293.8z"/>
<path class="st0" d="M438.6,64v40.7c-6.1-8.6-17.2-11.8-25.7-11.8c-22.8,0-37.5,16.7-37.5,42.6c0,11.9,3.4,22.6,9.4,30.2
	c6.7,8.4,16.5,13,28.4,13s21-4.4,25.4-11.8v9.9h14.5V64H438.6z M415.1,165.7c-16.8,0-24.4-14.6-24.4-29.2c0-9.2,2.3-30.6,23.6-30.6
	c23,0,24.8,23,24.8,30C439.1,150.3,432.8,165.7,415.1,165.7L415.1,165.7z"/>
<path class="st0" d="M544.8,164.6l-0.8,0.3c-1.2,0.5-2.5,0.7-3.8,0.7c-3.5,0-3.7-1.9-3.7-8.4v-41.5c0-15.4-10.1-22.8-30.8-22.8
	c-12.6,0-33.9,3.6-34.8,27.6v0.6h14.5v-0.6c0.5-10,6.7-14.8,19.6-14.8c11.8,0,17.3,4.2,17.3,12.9c0,7.3-7.4,8.4-17.6,9.8
	c-3,0.4-5.9,0.8-9.1,1.4c-14,2.7-27.8,6.9-27.8,25.4c0,14.5,10.2,23.3,27.3,23.3c11.5,0,20.8-4.1,27.9-11.8
	c0.6,9.5,6.6,11.8,11.7,11.8c3.5,0.2,6.9-0.7,9.9-2.4l0.3-0.2L544.8,164.6L544.8,164.6z M498,165.7c-4.5,0-15-1.1-15-11.2
	c0-9.8,7.9-12.6,15.7-14c2.4-0.4,4.8-0.7,7.3-1c6.2-0.8,12.1-1.6,16-3.9l0,0v12.6C522,154.8,515.5,165.7,498,165.7z"/>
<path class="st0" d="M601,92.9h-0.6c-13.5-0.4-22.6,5-29.4,17.7V94.8h-13.6v81.9h14.4v-36.5c0-21.8,9.2-32,28.6-32h0.6L601,92.9
	L601,92.9z"/>
<path class="st0" d="M666.2,64v40.7c-6.1-8.6-17.1-11.8-25.8-11.8c-22.7,0-37.4,16.7-37.4,42.6c0,11.9,3.3,22.6,9.5,30.2
	c6.7,8.4,16.5,13,28.3,13s21-4.4,25.4-11.8v9.9h14.5V64H666.2z M642.7,165.7c-16.9,0-24.4-14.6-24.4-29.2c0-9.2,2.3-30.6,23.6-30.6
	c23,0,24.8,23,24.8,30C666.7,150.3,660.4,165.7,642.7,165.7L642.7,165.7z"/>
<path class="st0" d="M85,290.5v0.5c-1.5,19.4-13.6,31.6-31.5,31.6c-12.4,0-22-4.5-28.5-13.6c-5.9-8-9-19.2-9-32.5
	c0-12.1,3.2-23.1,8.9-30.9c6.5-8.9,16.3-13.5,28.4-13.5c16.3,0,27.7,8.7,30.6,23.3l0.1,0.5h16l-0.1-0.7c-1.6-11.5-7.1-21-15.7-27.4
	c-8.2-6.1-18.8-9.3-30.7-9.3c-16.5,0-30.2,6-39.8,17.4C4.9,246.2,0,261.1,0,277.6c0,36.2,20,58.7,52.2,58.7c13.8,0,25.6-4.2,34-12
	s13.4-19.3,14.8-33.1l0.1-0.6L85,290.5z"/>
<path class="st0" d="M114.9,220.9v112.8h14.5v-46.2c0-15.5,8.7-24.7,23.3-24.7c9.8,0,15.8,6,15.8,15.6v55.3h14.5v-53.8
	c0-20.2-9.3-30-28.4-30c-8.6,0-20,3.3-25.2,12.4v-41.4H114.9z"/>
<path class="st0" d="M213.2,278v-0.6c0.5-10,6.7-14.7,19.5-14.7c11.9,0,17.3,4.1,17.3,12.8c0,7.4-7.4,8.5-17.6,9.9
	c-2.9,0.4-5.9,0.8-9,1.4c-14.1,2.7-27.8,6.9-27.8,25.3c0,14.6,10.2,23.3,27.3,23.3c11.4,0,20.8-4,27.9-11.7
	c0.6,9.5,6.6,11.7,11.8,11.7c4.1,0,7.2-0.7,9.8-2.3l0.3-0.2v-11.5l-0.8,0.3c-1.2,0.5-2.5,0.7-3.8,0.7c-3.5,0-3.6-1.9-3.6-8.5v-41.5
	c0-15.3-10.1-22.7-30.9-22.7c-12.6,0-33.8,3.6-34.8,27.5v0.6H213.2z M225.9,322.6c-4.5,0-15-1.1-15-11.3c0-9.8,7.9-12.5,15.8-13.9
	c2.4-0.4,4.8-0.7,7.2-1c6.3-0.8,12.2-1.6,16.1-3.9l0,0v12.5C249.9,311.7,243.4,322.6,225.9,322.6L225.9,322.6z"/>
<path class="st0" d="M680.8,333.7V221h-14.5v40.7c-6.1-8.7-17.1-11.8-25.8-11.8c-22.7,0-37.4,16.7-37.4,42.6
	c0,11.8,3.3,22.6,9.5,30.2c6.7,8.4,16.5,12.9,28.3,12.9s21-4.3,25.4-11.7v10H680.8z M642.7,322.7c-16.9,0-24.4-14.7-24.4-29.2
	c0-9.2,2.3-30.6,23.6-30.6c23,0,24.8,23,24.8,30C666.7,307.2,660.4,322.7,642.7,322.7L642.7,322.7z"/>
<path class="st0" d="M442.7,308.2c-2.5,9.3-9.5,14.4-20,14.4c-7.5,0-13.7-2.3-18-6.8c-4.3-4.6-6.6-11.1-6.5-18.6h60.4v-0.6
	c0.6-14.6-3.9-28.4-12-36.8c-6.4-6.7-14.9-10-25.2-10c-22.3,0-38.5,17.9-38.5,42.6c0.9,27.4,15.2,43,39.3,43
	c18.5,0,31.1-9.9,34.9-27.3L442.7,308.2z M420.6,262.8c12.1,0,21.6,9.2,22.6,21.6h-45C399.2,273.5,406.5,262.8,420.6,262.8
	L420.6,262.8z"/>
<path class="st0" d="M577.7,308.4c-2.5,9.2-9.6,14.2-20,14.2c-7.5,0-13.6-2.3-17.9-6.8c-4.5-4.6-6.7-11.1-6.6-18.6h60.4v-0.6
	c0.6-14.6-3.9-28.4-12-36.8c-6.4-6.7-14.9-10-25.2-10c-22.4,0-38.5,17.9-38.5,42.6c0.8,27.4,15.2,43,39.3,43
	c18.4,0,31-9.8,34.9-27.1L577.7,308.4z M555.6,262.8c12,0,21.7,9.2,22.6,21.6h-45.1C534.3,273.5,541.6,262.8,555.6,262.8z"/>
<path class="st0" d="M299.9,333.7v-36.6c0-21.9,9.1-32,28.6-32h0.6v-15.2h-0.6c-13.6-0.4-22.7,5-29.4,17.6v-15.8h-13.7v82H299.9z"/>
<path class="st0" d="M487.2,333.7v-36.6c0-21.9,9-32,28.6-32h0.6v-15.2h-0.6c-13.6-0.4-22.7,5-29.4,17.6v-15.8h-13.7v82H487.2z"/>
<path class="st0" d="M375.6,320.8h-10.3c-6.9,0-9.8-4.4-9.8-10.8v-45.4h20v-12.8h-20v-24.2h-14.5v82.2c0,17.5,8.8,24.9,24.2,24.9
	h10.3V320.8z"/>
<path class="st1" d="M819.2,364.4c-9.9,5.9-18.9,9.4-28.3,9.4c-24.4,0-44.7-20-45.9-43.9l47.5-28.3l73.8,33L819.2,364.4L819.2,364.4
	z"/>
<path class="st2" d="M847.5,242.9l-35.2-15.5c-15.8-7-30.6-12.9-30.6-30.2c0-9,2.7-13.7,7-18.4l74.6,32.9l-18.5,10.7
	c-5.1,3.1-8.6,5.9-8.6,9.8C836.1,236.4,840.9,240,847.5,242.9L847.5,242.9z"/>
<path class="st1" d="M882.1,80.2l-36.1,21.9c-3.2,1.9-7.5,5.1-7.5,9.9c0,5.5,8.3,9.7,15.8,13.2l-45.2-20
	c-13.3-5.9-26.6-12.5-26.6-28.6c-0.1-6,1.7-11.9,5.1-16.9L885.2,0c11.7,6.6,23.1,20.1,23.1,38.1C908.3,57.4,898.5,70.3,882.1,80.2
	L882.1,80.2z"/>
<path class="st2" d="M959,150.9l-9,5.1l-74.7-33l86.8-52.3c11.7,6.8,23.2,20.1,23.2,38.1C985.3,128,975.8,141.3,959,150.9L959,150.9
	z"/>
<path class="st1" d="M895.9,214.3l44.2,19.4c16.5,7.4,21.6,16.1,21.6,27.1c0,6.3-3.5,12.5-8.6,16.8l-74.3-33l12.6-7
	c10.6-5.9,14.2-9.4,14.2-13.3C905.6,220.3,903.1,217.6,895.9,214.3L895.9,214.3z"/>
<path class="st3" d="M974.7,377.3c-18.8-14.5-38.8-24.3-63.2-35.3l-112.6-49.8c-28.3-12.6-47.1-29.4-47.1-57.7
	c0-27.5,13.3-40.8,30.6-51.8l6.3-3.9c-4.3,4.7-7,9.4-7,18.4c0,17.3,14.9,23.2,30.6,30.2l131,57.8c22.8,9.8,43.7,26.6,43.7,55.3
	C986.9,356.2,980.9,370.3,974.7,377.3L974.7,377.3z"/>
<path class="st0" d="M961.3,272.5l-8.2,5.1c5.1-4.3,8.6-10.6,8.6-16.8c0-11-5.1-19.7-21.6-27.1L800,172
	c-28.3-12.5-45.9-28.7-45.9-56.8c0-25.9,12.9-42.9,33.4-55.4c-3.4,5-5.2,10.9-5.1,16.9c0,16.1,13.3,22.7,26.6,28.6l136.2,60.1
	c24.8,11,44.8,27.5,44.8,57.7C990,246.7,979,261.5,961.3,272.5L961.3,272.5z"/>
</svg>
