<?xml version="1.0" encoding="utf-8"?>
<!-- Generator: Adobe Illustrator 22.0.1, SVG Export Plug-In . SVG Version: 6.00 Build 0)  -->
<svg version="1.1" id="Layer_1" xmlns="http://www.w3.org/2000/svg" xmlns:xlink="http://www.w3.org/1999/xlink" x="0px" y="0px"
	 viewBox="0 0 982.2 175" style="enable-background:new 0 0 982.2 175;" xml:space="preserve">
<style type="text/css">
	.st0{fill:url(#SVGID_1_);}
	.st1{fill:#FFFFFF;}
	.st2{fill:#00529B;}
	.st3{fill:#005199;}
</style>
<title>Nigeria-Logo</title>
<g>
	
		<linearGradient id="SVGID_1_" gradientUnits="userSpaceOnUse" x1="25.3076" y1="191.5983" x2="135.7675" y2="30.5384" gradientTransform="matrix(1 0 0 -1 0 182.9)">
		<stop  offset="4.000000e-02" style="stop-color:#179ED9"/>
		<stop  offset="0.22" style="stop-color:#1B7AB6"/>
		<stop  offset="0.46" style="stop-color:#205491"/>
		<stop  offset="0.67" style="stop-color:#233977"/>
		<stop  offset="0.86" style="stop-color:#252867"/>
		<stop  offset="1" style="stop-color:#262261"/>
	</linearGradient>
	<path class="st0" d="M140.6,14.8c-0.4-4-2.7-7.4-6.5-8.2C114.7,2.3,94.8,0.1,74.9,0C55,0.1,35.2,2.3,15.8,6.6
		c-3.8,0.8-6.1,4.1-6.5,8.2C7.8,31.4,4.2,74.5,6,91.8c4.3,40.9,34,66.5,68.9,78.3c4.5-1.5,8.9-3.3,13.2-5.3l11.3-6
		c23.5-14.1,41.1-36.2,44.3-67.1C145.7,74.5,142.1,31.5,140.6,14.8z"/>
	
		<image style="overflow:visible;opacity:0.97;enable-background:new    ;" width="146" height="174" xlink:href="29C0A9CB.png"  transform="matrix(0.9932 0 0 0.9932 0 2.1759)">
	</image>
	<path class="st1" d="M135.7,20c-0.3-3.7-2.5-6.8-6-7.6c-18-3.9-36.4-6-54.8-6.1c-18.4,0.1-36.8,2.2-54.8,6.1
		c-3.5,0.7-5.7,3.9-6,7.6c-1.4,15.4-4.7,55.3-3,71.3c4,37.9,31.5,61.6,63.8,72.5c4.2-1.4,8.3-3,12.3-4.9L32.1,48.6l-5.4-4.1
		c-0.8-0.6-1.4-1.6-1.4-2.7V24.6c0-0.9,0.7-1.7,1.7-1.7c0,0,0,0,0,0c0.4,0,0.7,0.1,1,0.3l13.3,10.3c0.8,0.7,1.3,1.7,1.3,2.8v6.8
		c6.5-3.6,14-5.3,21.5-4.8c12.1,0.6,20.5,9,35,9.8c11.7,0.6,19.8-3.5,25.8-7c0.6,8.8,1.3,18.4,1.6,27.2l0.2,8.6
		c-6.6,5.5-17.4,10.4-23.6,10.4c-10.2,0-17.1-6.6-26.8-6.6c-4.5,0-9,1.4-12.7,4l34.1,68.8c21.7-13.1,38.1-33.6,41-62.1
		C140.4,75.3,137.1,35.4,135.7,20z M68.5,147.5l-3.2-1.5c-22.6-11.3-38.9-30-41.6-56.1c-0.7-7.2-0.4-20.3,0.4-33.6L68.5,147.5z
		 M99.1,36.7c-14.5-0.8-22.5-8.5-34.6-9.1c-4.3-0.2-8.7,0.3-12.8,1.6l-11-7.3l0.3-0.1c11.2-1.6,22.5-2.5,33.9-2.5
		c16.3,0.1,32.6,1.8,48.6,5.1l0.6,5.9C118.1,33.5,110.4,37.3,99.1,36.7L99.1,36.7z M101.7,135L83.1,97.7c-0.9-1.9-2.2-3.5-3.8-4.9
		C85,94.7,92,99.2,103,99.2c10.7,0,19.7-6.5,23.3-9.9C124.4,108.8,115.2,123.9,101.7,135L101.7,135z"/>
	<path class="st2" d="M524,90.3h-12.8V15.7H524V90.3z"/>
	<path class="st2" d="M542.4,90.3V15.7h23.7c7.2,0,12.9,1.6,17.2,4.7c4,2.8,6.4,7.4,6.3,12.3c0.1,4-1.2,7.8-3.6,11
		c-2.5,3.2-6,5.5-9.9,6.7v0.2c4.7,0.4,9,2.4,12.3,5.7c3.1,3.2,4.6,7.4,4.6,12.5c0.2,6.1-2.7,11.9-7.5,15.6c-5,4-11.4,5.9-19,5.9
		H542.4z M554.7,25.6v21.2h8c4.3,0,7.7-1,10.1-3s3.7-4.9,3.7-8.6c0-6.4-4.3-9.6-12.8-9.6L554.7,25.6z M554.7,56.8v23.7h10.6
		c4.6,0,8.2-1.1,10.7-3.2c2.5-2.2,3.9-5.5,3.8-8.8c0-7.7-5.4-11.6-16.1-11.6L554.7,56.8z"/>
	<path class="st2" d="M650.9,26.2h-21.5v64.1H617V26.2h-21.4V15.7h55.2V26.2z"/>
	<path class="st2" d="M709.5,87.2c-5.6,2.9-12.6,4.4-21,4.4c-10.8,0-19.5-3.4-26-10.3c-6.5-6.8-9.8-15.8-9.8-26.9
		c0-11.9,3.7-21.6,11-28.9c7.3-7.4,16.6-11,27.8-11c7.2,0,13.2,1,18,3.1v12.3c-5-3-10.8-4.5-16.7-4.5c-8.1,0-14.6,2.6-19.7,7.8
		c-5,5.2-7.5,12.1-7.5,20.7c0,8.2,2.3,14.8,7,19.6c4.7,4.9,10.8,7.3,18.5,7.3c6.5,0.2,12.8-1.6,18.3-5V87.2z"/>
	<path class="st2" d="M753,90.3V15.7h23.7c7.2,0,12.9,1.6,17.2,4.7c4,2.8,6.4,7.4,6.3,12.3c0.1,4-1.2,7.8-3.6,11
		c-2.5,3.2-6,5.6-10,6.7v0.2c4.7,0.4,9,2.4,12.3,5.7c3.1,3.2,4.6,7.4,4.6,12.5c0.2,6.1-2.7,11.9-7.5,15.5c-5,4-11.4,5.9-19,5.9
		L753,90.3z M765.4,25.6v21.2h8c4.3,0,7.7-1,10.1-3s3.7-4.9,3.7-8.6c0-6.4-4.3-9.6-12.8-9.6L765.4,25.6z M765.4,56.8v23.7h10.6
		c4.6,0,8.2-1.1,10.7-3.2c2.5-2.2,3.9-5.5,3.8-8.8c0-7.7-5.4-11.6-16.1-11.6L765.4,56.8z"/>
	<path class="st2" d="M856.9,90.3h-11.7V82H845c-3.7,6.4-9.1,9.6-16.2,9.6c-5.2,0-9.3-1.4-12.3-4.3s-4.5-6.6-4.5-11.3
		c0-10.1,5.8-15.9,17.4-17.6l15.8-2.2c0-7.6-3.6-11.4-10.8-11.4c-6.3,0-12.5,2.3-17.2,6.6V40.7c5.9-3.4,12.6-5.1,19.5-5
		c13.5,0,20.2,6.6,20.2,19.9L856.9,90.3z M845.3,64.1l-11.2,1.6c-2.8,0.2-5.5,1.1-7.8,2.5c-1.7,1.2-2.6,3.4-2.6,6.5
		c-0.1,2.1,0.8,4.1,2.4,5.5c1.8,1.5,4.1,2.3,6.5,2.2c3.5,0.1,6.8-1.3,9.1-3.9c2.4-2.7,3.7-6.2,3.6-9.8L845.3,64.1z"/>
	<path class="st2" d="M919.2,90.3h-12.1v-30c0-10-3.5-14.9-10.6-14.9c-3.5-0.1-6.9,1.4-9.1,4.1c-2.4,2.9-3.7,6.6-3.6,10.4v30.4
		h-12.1V37h12.1v8.9h0.2c4-6.7,9.8-10.1,17.3-10.1c5.8,0,10.2,1.9,13.3,5.6s4.6,9.2,4.6,16.3L919.2,90.3z"/>
	<path class="st2" d="M982.2,90.3h-15.3l-20.7-25.6H946v25.6h-12.1V11.4H946v50h0.2L965.8,37h14.5l-22,25.7L982.2,90.3z"/>
	<path class="st2" d="M195.4,149.3h-3.7l-3-8h-12.1l-2.9,8H170l10.9-28.5h3.4L195.4,149.3z M187.5,138.3l-4.5-12.2
		c-0.2-0.6-0.3-1.3-0.4-1.9h-0.1c-0.1,0.6-0.2,1.3-0.4,1.9l-4.4,12.2H187.5z"/>
	<path class="st2" d="M239.2,149.3h-3.3v-11.7c0.1-1.7-0.2-3.4-1-4.9c-0.8-1.1-2.2-1.6-3.5-1.5c-1.4,0-2.8,0.7-3.6,1.9
		c-1,1.3-1.5,2.9-1.5,4.6v11.6h-3.3v-12.1c0-4-1.5-6-4.6-6c-1.4,0-2.7,0.7-3.5,1.8c-1,1.4-1.5,3-1.4,4.7v11.6h-3.3V129h3.3v3.2h0.1
		c1.2-2.3,3.7-3.8,6.3-3.7c1.3,0,2.6,0.4,3.6,1.2c1,0.7,1.8,1.8,2.1,3c1.2-2.6,3.9-4.3,6.8-4.2c4.5,0,6.7,2.8,6.7,8.3L239.2,149.3z"
		/>
	<path class="st2" d="M261.7,140h-14.4c-0.1,1.9,0.6,3.8,1.8,5.3c1.3,1.3,3,1.9,4.8,1.8c2.3,0,4.5-0.8,6.3-2.3v3.1
		c-2.1,1.4-4.6,2.1-7.1,2c-2.6,0.1-5-0.9-6.8-2.8c-1.7-1.8-2.5-4.4-2.5-7.8c-0.1-2.8,0.8-5.6,2.7-7.8c1.7-1.9,4.1-3,6.7-3
		c2.3-0.1,4.6,0.8,6.2,2.6c1.6,2.1,2.3,4.6,2.2,7.2L261.7,140z M258.4,137.2c0.1-1.6-0.4-3.1-1.4-4.4c-0.9-1.1-2.3-1.7-3.7-1.6
		c-1.5,0-2.9,0.6-3.9,1.7c-1.1,1.2-1.8,2.7-2,4.3H258.4z"/>
	<path class="st2" d="M295.6,149.3h-3.3v-11.7c0.1-1.7-0.2-3.4-1-4.9c-0.8-1.1-2.2-1.6-3.5-1.5c-1.4,0-2.7,0.7-3.5,1.9
		c-1,1.3-1.5,2.9-1.5,4.6v11.6h-3.3v-12.1c0-4-1.5-6-4.6-6c-1.4,0-2.7,0.7-3.5,1.8c-1,1.4-1.5,3-1.4,4.7v11.6h-3.3V129h3.3v3.2h0.1
		c1.2-2.4,3.7-3.8,6.4-3.7c2.7-0.1,5,1.7,5.8,4.2c1.2-2.6,3.9-4.3,6.8-4.2c4.5,0,6.7,2.8,6.7,8.3L295.6,149.3z"/>
	<path class="st2" d="M305.1,146.4L305.1,146.4l-0.1,3h-3.3v-30.2h3.3v13.4h0.1c1.4-2.6,4.1-4.1,7-4.1c2.4-0.1,4.6,0.9,6.1,2.7
		c1.6,2.1,2.3,4.7,2.2,7.3c0.1,2.9-0.7,5.8-2.5,8.2c-1.7,2-4.2,3.2-6.8,3.1C308.6,149.9,306.3,148.6,305.1,146.4z M305,138.2v2.8
		c0,1.6,0.6,3.1,1.6,4.3c2.3,2.3,6,2.4,8.3,0.1c0.2-0.2,0.4-0.4,0.5-0.6c1.2-1.9,1.8-4.1,1.7-6.3c0.1-1.9-0.4-3.8-1.6-5.3
		c-1-1.3-2.6-2-4.3-1.9c-1.8-0.1-3.4,0.7-4.6,2C305.6,134.6,304.9,136.4,305,138.2L305,138.2z"/>
	<path class="st2" d="M342,140h-14.4c-0.1,1.9,0.6,3.8,1.8,5.3c1.3,1.3,3,1.9,4.8,1.8c2.3,0,4.5-0.8,6.3-2.3v3.1
		c-2.1,1.4-4.6,2.1-7.1,2c-2.6,0.1-5-0.9-6.8-2.8c-1.6-1.8-2.5-4.4-2.5-7.8c-0.1-2.8,0.8-5.6,2.7-7.8c1.7-1.9,4.1-3,6.7-3
		c2.3-0.1,4.6,0.8,6.2,2.6c1.6,2.1,2.3,4.6,2.2,7.2V140z M338.7,137.2c0.1-1.6-0.4-3.1-1.4-4.4c-0.9-1.1-2.3-1.7-3.7-1.6
		c-1.5,0-2.9,0.6-3.9,1.7c-1.1,1.2-1.8,2.7-2,4.3H338.7z"/>
	<path class="st2" d="M357.6,132.3c-0.7-0.5-1.6-0.7-2.5-0.7c-1.4,0-2.7,0.8-3.5,2c-1,1.6-1.5,3.5-1.4,5.4v10.4H347V129h3.3v4.2h0.1
		c0.4-1.3,1.1-2.5,2.1-3.3c0.9-0.8,2-1.2,3.2-1.2c0.7,0,1.4,0.1,2,0.3L357.6,132.3z"/>
	<path class="st2" d="M380.8,149.8c-2.7,0.1-5.3-0.9-7.2-2.9c-1.9-2.1-2.8-4.8-2.7-7.6c0-3.4,0.9-6.1,2.8-8c2-2,4.8-3.1,7.6-2.9
		c2.7-0.2,5.3,0.9,7.1,2.8c1.7,1.9,2.6,4.5,2.6,7.8c0.1,2.9-0.9,5.7-2.8,7.8C386.3,148.8,383.6,149.9,380.8,149.8z M381,131.2
		c-1.9-0.1-3.8,0.7-5,2.1c-1.3,1.7-2,3.8-1.8,5.9c-0.1,2.1,0.5,4.1,1.9,5.7c1.3,1.4,3.1,2.2,5,2.1c1.9,0.1,3.6-0.6,4.9-2
		c1.2-1.7,1.8-3.7,1.7-5.8c0.1-2.1-0.5-4.2-1.7-5.9C384.7,131.9,382.9,131.1,381,131.2L381,131.2z"/>
	<path class="st2" d="M406.2,122c-0.7-0.4-1.4-0.6-2.2-0.5c-2.3,0-3.4,1.4-3.4,4.3v3.2h4.8v2.8h-4.8v17.6h-3.2v-17.6h-3.5V129h3.5
		v-3.3c-0.1-1.9,0.6-3.7,1.9-5c1.2-1.2,2.9-1.9,4.6-1.9c0.8,0,1.6,0.1,2.4,0.3V122z"/>
	<path class="st2" d="M419.1,148.2v-3.9c0.5,0.4,1,0.8,1.6,1.1c0.6,0.3,1.3,0.6,2,0.8c0.7,0.2,1.4,0.4,2.1,0.5
		c0.6,0.1,1.3,0.2,2,0.2c1.6,0.1,3.2-0.3,4.6-1.1c1.5-1.3,1.9-3.5,1-5.3c-0.4-0.6-0.8-1.1-1.4-1.6c-0.7-0.5-1.4-1-2.1-1.3
		c-0.8-0.4-1.7-0.9-2.6-1.4s-1.9-1-2.8-1.5c-0.8-0.5-1.6-1.1-2.3-1.7c-0.6-0.6-1.1-1.3-1.5-2.1c-0.4-0.9-0.6-1.8-0.5-2.8
		c0-1.2,0.3-2.4,0.9-3.4c0.6-1,1.3-1.8,2.3-2.4c1-0.6,2-1.1,3.2-1.4c1.2-0.3,2.4-0.5,3.6-0.5c2.1-0.1,4.2,0.2,6.1,1v3.8
		c-1.9-1.2-4.2-1.9-6.5-1.8c-0.7,0-1.5,0.1-2.2,0.2c-0.7,0.1-1.3,0.4-2,0.8c-0.6,0.3-1,0.8-1.4,1.3c-0.4,0.6-0.6,1.3-0.5,2
		c0,0.6,0.1,1.3,0.4,1.9c0.3,0.6,0.7,1.1,1.2,1.5c0.6,0.5,1.2,0.9,1.9,1.3c0.8,0.4,1.6,0.9,2.6,1.3s2,1,2.9,1.6
		c0.9,0.5,1.7,1.1,2.4,1.8c0.7,0.7,1.2,1.4,1.6,2.2c0.4,0.9,0.6,1.9,0.6,2.8c0,1.2-0.2,2.5-0.8,3.6c-0.5,1-1.3,1.8-2.2,2.4
		c-1,0.6-2.1,1.1-3.2,1.3c-1.3,0.3-2.6,0.4-3.9,0.4c-0.6,0-1.1,0-1.7-0.1c-0.7-0.1-1.3-0.2-2-0.3c-0.7-0.1-1.3-0.3-2-0.5
		C420.1,148.7,419.6,148.5,419.1,148.2z"/>
	<path class="st2" d="M449.8,149.1c-0.9,0.5-2,0.7-3,0.6c-3.6,0-5.4-2-5.4-6v-12h-3.5V129h3.5v-5l3.3-1v6h5.1v2.8h-5.1v11.5
		c-0.1,1,0.2,2,0.7,2.9c0.6,0.6,1.4,1,2.3,0.9c0.8,0,1.5-0.2,2.1-0.7L449.8,149.1z"/>
	<path class="st2" d="M468.7,149.3h-3.3v-3.2h-0.1c-1.2,2.3-3.6,3.7-6.3,3.7c-1.7,0.1-3.4-0.5-4.8-1.6c-1.2-1.1-1.8-2.7-1.7-4.3
		c0-3.8,2.2-6,6.7-6.6l6.1-0.9c0-3.5-1.4-5.2-4.2-5.2c-2.4,0-4.8,0.9-6.6,2.5v-3.3c2.1-1.3,4.5-2,6.9-1.9c4.8,0,7.2,2.5,7.2,7.6
		L468.7,149.3z M465.5,139l-4.9,0.7c-1.2,0.1-2.4,0.5-3.4,1.1c-0.8,0.7-1.3,1.8-1.1,2.8c0,0.9,0.4,1.8,1.1,2.4
		c0.8,0.7,1.8,1,2.8,0.9c1.5,0,3-0.6,4-1.7c1.1-1.2,1.6-2.7,1.6-4.3L465.5,139z"/>
	<path class="st2" d="M491.8,149.3h-3.3v-11.6c0-4.3-1.6-6.5-4.7-6.5c-1.6,0-3,0.6-4,1.8c-1.1,1.3-1.7,3-1.6,4.7v11.6h-3.3V129h3.3
		v3.4h0.1c1.3-2.4,3.9-3.9,6.7-3.9c1.9-0.1,3.8,0.7,5.1,2.2c1.3,1.8,1.9,4,1.8,6.2L491.8,149.3z"/>
	<path class="st2" d="M515.3,149.3H512v-3.5H512c-2.4,3.9-7.4,5.1-11.3,2.7c-0.7-0.4-1.3-0.9-1.8-1.5c-1.6-2.1-2.4-4.8-2.3-7.4
		c-0.1-2.9,0.8-5.8,2.5-8.1c1.7-2,4.2-3.1,6.8-3c2.5-0.2,4.9,1.1,6.1,3.3h0.1v-12.7h3.3V149.3z M512,140.1v-3c0-1.6-0.5-3.1-1.6-4.2
		c-1.1-1.1-2.6-1.8-4.1-1.7c-1.8-0.1-3.6,0.7-4.7,2.2c-1.2,1.8-1.8,3.9-1.7,6c-0.1,2,0.5,3.9,1.6,5.5c1.1,1.3,2.7,2.1,4.4,2
		c1.7,0,3.3-0.7,4.4-2C511.5,143.6,512.1,141.9,512,140.1z"/>
	<path class="st2" d="M536.5,149.3h-3.3v-3.2h-0.1c-1.2,2.3-3.6,3.8-6.3,3.7c-1.7,0.1-3.4-0.5-4.8-1.6c-1.2-1.1-1.8-2.7-1.7-4.3
		c0-3.8,2.2-6,6.7-6.6l6.1-0.9c0-3.5-1.4-5.2-4.2-5.2c-2.4,0-4.8,0.9-6.6,2.5v-3.3c2.1-1.3,4.5-2,6.9-1.9c4.8,0,7.2,2.5,7.2,7.6
		L536.5,149.3z M533.2,139l-4.9,0.7c-1.2,0.1-2.4,0.5-3.4,1.1c-0.8,0.7-1.3,1.8-1.2,2.8c0,0.9,0.4,1.8,1.1,2.4
		c0.8,0.7,1.8,1,2.8,0.9c1.5,0,3-0.6,4-1.7c1.1-1.2,1.6-2.7,1.6-4.3L533.2,139z"/>
	<path class="st2" d="M553.2,132.3c-0.7-0.5-1.6-0.7-2.5-0.7c-1.4,0-2.7,0.8-3.5,2c-1,1.6-1.5,3.5-1.4,5.4v10.4h-3.3V129h3.3v4.2
		h0.1c0.4-1.3,1.1-2.5,2.1-3.3c0.9-0.8,2-1.2,3.2-1.2c0.7,0,1.4,0.1,2,0.3L553.2,132.3z"/>
	<path class="st2" d="M574.2,149.3h-3.3v-3.5h-0.1c-1.4,2.6-4.1,4.1-7,3.9c-2.4,0.1-4.6-0.9-6.1-2.7c-1.6-2.1-2.4-4.8-2.3-7.4
		c-0.2-2.9,0.8-5.8,2.5-8.1c1.7-2,4.2-3.1,6.8-3c2.5-0.2,4.9,1.1,6.1,3.3h0.1v-12.7h3.3L574.2,149.3z M570.9,140.1v-3
		c0-1.6-0.6-3.1-1.6-4.2c-1.1-1.1-2.6-1.8-4.1-1.7c-1.8-0.1-3.6,0.7-4.7,2.2c-1.2,1.8-1.8,3.9-1.7,6c-0.1,2,0.5,3.9,1.6,5.5
		c1.1,1.3,2.7,2.1,4.4,2c1.7,0,3.3-0.7,4.4-2C570.3,143.6,570.9,141.9,570.9,140.1L570.9,140.1z"/>
	<path class="st2" d="M592.4,149.3v-28.5h8.1c2.1-0.1,4.2,0.5,5.9,1.8c1.4,1.2,2.2,2.9,2.2,4.7c0,1.5-0.4,3-1.3,4.2
		c-0.9,1.2-2.2,2.1-3.6,2.5v0.1c1.8,0.1,3.4,0.9,4.6,2.2c1.2,1.3,1.8,3,1.7,4.8c0.1,2.3-0.9,4.5-2.6,5.9c-1.9,1.5-4.2,2.4-6.6,2.3
		L592.4,149.3z M595.7,123.8v9.2h3.4c1.5,0.1,3.1-0.4,4.3-1.3c1.1-0.9,1.7-2.3,1.6-3.7c0-2.8-1.8-4.2-5.5-4.2H595.7z M595.7,136
		v10.3h4.5c1.6,0.1,3.3-0.4,4.6-1.4c1.1-1,1.7-2.4,1.6-3.8c0-3.4-2.3-5.1-6.9-5.1H595.7z"/>
	<path class="st2" d="M629.8,149.3h-3.3v-3.2h-0.1c-1.2,2.3-3.6,3.7-6.3,3.7c-1.7,0.1-3.4-0.5-4.8-1.6c-1.2-1.1-1.8-2.7-1.7-4.3
		c0-3.8,2.2-6,6.7-6.6l6.1-0.9c0-3.5-1.4-5.2-4.2-5.2c-2.4,0-4.8,0.9-6.6,2.5v-3.3c2.1-1.3,4.5-2,6.9-1.9c4.8,0,7.2,2.5,7.2,7.6
		L629.8,149.3z M626.6,139l-4.9,0.7c-1.2,0.1-2.4,0.5-3.4,1.1c-0.8,0.7-1.3,1.8-1.2,2.8c0,0.9,0.4,1.8,1.1,2.4
		c0.8,0.7,1.8,1,2.8,0.9c1.5,0,3-0.6,4-1.7c1.1-1.2,1.6-2.7,1.6-4.3L626.6,139z"/>
	<path class="st2" d="M652.9,149.3h-3.3v-11.6c0-4.3-1.6-6.5-4.7-6.5c-1.5,0-3,0.7-4,1.8c-1.1,1.3-1.7,3-1.6,4.7v11.6H636V129h3.3
		v3.4h0.1c1.3-2.4,3.9-3.9,6.7-3.9c1.9-0.1,3.8,0.7,5.1,2.2c1.3,1.8,1.9,4,1.8,6.2V149.3z"/>
	<path class="st2" d="M675.9,149.3h-4.5l-9-9.8h-0.1v9.8H659v-30.2h3.3v19.1h0.1l8.5-9.3h4.3l-9.4,9.8L675.9,149.3z"/>
	<path class="st2" d="M712.2,147.4c-2.9,1.6-6.2,2.5-9.5,2.4c-3.7,0.1-7.3-1.3-9.9-3.9c-2.5-2.6-3.8-6.1-3.8-10.4
		c-0.1-4,1.4-8,4.2-10.9c2.8-2.8,6.6-4.4,10.6-4.2c2.7-0.1,5.4,0.4,7.8,1.5v3.7c-2.5-1.5-5.3-2.3-8.2-2.2c-3-0.1-5.8,1.1-7.9,3.3
		c-2.1,2.3-3.2,5.4-3.1,8.5c0,3.6,0.9,6.4,2.8,8.5c2,2.1,4.8,3.2,7.7,3.1c2,0.1,4-0.4,5.8-1.3v-8h-6.2v-3h9.6L712.2,147.4z"/>
	<path class="st2" d="M729,132.3c-0.7-0.5-1.6-0.7-2.5-0.7c-1.4,0-2.7,0.8-3.5,2c-1,1.6-1.5,3.5-1.4,5.4v10.4h-3.2V129h3.3v4.2h0.1
		c0.4-1.3,1.1-2.5,2.1-3.3c0.9-0.8,2-1.2,3.2-1.2c0.7,0,1.4,0.1,2,0.3L729,132.3z"/>
	<path class="st2" d="M741,149.8c-2.7,0.1-5.3-0.9-7.2-2.9c-1.9-2.1-2.8-4.8-2.7-7.6c0-3.4,0.9-6.1,2.8-8c2-2,4.8-3,7.6-2.9
		c2.7-0.2,5.3,0.9,7.1,2.8c1.7,1.9,2.6,4.5,2.6,7.8c0.1,2.9-0.9,5.7-2.8,7.8C746.5,148.9,743.8,149.9,741,149.8z M741.3,131.2
		c-1.9-0.1-3.8,0.7-5,2.1c-1.3,1.7-2,3.8-1.8,5.9c-0.1,2.1,0.5,4.1,1.8,5.7c1.3,1.4,3.1,2.2,5,2.1c1.9,0.1,3.7-0.7,4.9-2
		c1.2-1.7,1.8-3.7,1.7-5.8c0.1-2.1-0.5-4.2-1.7-5.9C744.9,131.9,743.1,131.1,741.3,131.2L741.3,131.2z"/>
	<path class="st2" d="M772.8,149.3h-3.3v-3.2h-0.1c-1.2,2.4-3.6,3.8-6.3,3.7c-4.8,0-7.3-2.9-7.3-8.7V129h3.2v11.7
		c0,4.3,1.6,6.4,4.9,6.4c1.5,0,3-0.6,3.9-1.8c1.1-1.3,1.6-2.9,1.5-4.6V129h3.3L772.8,149.3z"/>
	<path class="st2" d="M782.8,146.4L782.8,146.4l-0.1,12.3h-3.3V129h3.3v3.6h0.1c1.4-2.6,4.1-4.1,7-4.1c2.4-0.1,4.6,0.9,6.1,2.7
		c1.6,2.1,2.4,4.7,2.2,7.3c0.1,2.9-0.7,5.8-2.5,8.2c-1.7,2-4.2,3.2-6.8,3.1C786.3,149.9,784,148.5,782.8,146.4z M782.7,138.2v2.8
		c0,1.6,0.6,3.1,1.6,4.3c2.3,2.3,6,2.4,8.3,0.1c0.2-0.2,0.4-0.4,0.5-0.6c1.2-1.9,1.8-4.1,1.7-6.3c0.1-1.9-0.4-3.8-1.6-5.3
		c-1-1.3-2.6-2-4.3-1.9c-1.8-0.1-3.4,0.7-4.6,2C783.2,134.6,782.6,136.4,782.7,138.2z"/>
	<path class="st3" d="M190.7,92.2c-12.4,0-20.3-4.6-20.7-5.3l4.4-8.3c4.8,2.5,10.2,3.9,15.7,3.9c7.8,0,12.9-4.1,12.9-9.9
		c0.1-2.6-1.1-5-3.2-6.4c-8.1-6.2-28.8-4.8-28.8-24.2c0-12.7,9-20,23.7-20c6.6,0,13.1,1.4,19.1,3.9l-2.8,8.8
		c-5-1.7-10.2-2.6-15.4-2.8c-6.2,0-11.7,2.8-11.7,9.2c0,6,5.5,7.6,14.7,10.6c10.1,3.2,17.5,7.4,17.5,19.1
		C215.8,84.1,206.8,92.2,190.7,92.2"/>
	<path class="st3" d="M239.3,92.5c-4.6,0-7.8-1.1-9.9-3c-3.7-3.2-3.7-8.3-3.7-15V50.7h-8.3V44l8.3-1.6l1.8-13.6l10.6-1.8v15.4h14.7
		l-1.1,8.3h-13.4v25.1c0,3.9,0.2,7.4,5.5,7.4c2.8-0.1,5.5-0.6,8.1-1.6l2.5,7.1C253.1,89.2,247.6,92.4,239.3,92.5"/>
	<path class="st3" d="M285.8,91.3l-0.9-5.5c-1.1,1.1-6.5,6.5-14,6.5s-13.6-4.8-13.6-15.2c0-15.2,15.9-15,26.9-15.7v-2.5
		c0-5.5-0.9-8.3-8.1-8.3c-5.5,0-11.5,1.8-12.7,2.1l-2.1-7.1c0.9-0.5,9.7-4.4,18.9-4.4c15.4,0,15.9,8.5,15.9,19.3v30.6h-10.4V91.3z
		 M284.2,67.5c-10.4,0.7-15.2,2.3-15.2,9c0,5.5,3.2,6.7,6.5,6.7c4.6,0,7.6-3,8.5-3.7L284.2,67.5L284.2,67.5z"/>
	<path class="st3" d="M336.3,91.3V61.8c0-6.2-0.7-10.1-6.2-10.1c-4.6,0-9.2,3.2-11.3,4.4v35.2h-12.4V42.5H317l0.9,6.5
		c2.8-2.3,9.7-7.4,16.8-7.4c13.4,0,13.8,10.1,13.8,18v31.7H336.3z"/>
	<path class="st3" d="M384.1,92.2c-5.3-0.1-10.3-2.7-13.6-6.9l-0.9,5.8h-10.8V20.8l12.4-1.9v28.3c3.2-2.3,8.8-6,14.5-6
		c11.1,0,17.3,9.2,17.3,25.1C403.3,82.9,395.4,92.2,384.1,92.2 M381.1,51.4c-4.6,0-8.3,2.8-9.7,3.7v21.6c2.3,3.1,6,5,9.9,5.1
		c5.3,0,9-4.8,9-14.7C390.4,56,387.1,51.4,381.1,51.4"/>
	<path class="st3" d="M417.5,34.1c-3.9,0-7.1-3.2-7.1-7.1c0-3.9,3.2-7.1,7.1-7.1c3.9,0,7,3.2,6.9,7.1c0,0,0,0,0,0.1
		c0.2,3.8-2.8,7-6.5,7.1C417.8,34.1,417.7,34.1,417.5,34.1 M411.4,42.5h12.4v48.8h-12.4V42.5z"/>
	<path class="st3" d="M453.7,92.2c-13.6,0-21.9-8.3-21.9-25.1c0-15.9,7.8-25.8,22.3-25.8c8.1,0,15.2,3,16.4,3.9l-2.8,7.1
		c-3.6-1.1-7.3-1.7-11.1-1.9c-7.6,0-12,5.3-12,16.1c0,10.1,3.7,15.7,11.7,15.7c5.5,0,9.4-2.1,11.5-2.8l3.7,6.5
		C466.4,89.8,460.1,92,453.7,92.2"/>
</g>
</svg>
