<?xml version="1.0" encoding="utf-8"?>
<!-- Generator: Adobe Illustrator 22.0.1, SVG Export Plug-In . SVG Version: 6.00 Build 0)  -->
<svg version="1.1" id="Layer_1" xmlns="http://www.w3.org/2000/svg" xmlns:xlink="http://www.w3.org/1999/xlink" x="0px" y="0px"
	 viewBox="0 0 980 805.2" style="enable-background:new 0 0 980 805.2;" xml:space="preserve">
<style type="text/css">
	.st0{fill:#DB353A;}
	.st1{fill:#686767;}
	.st2{fill:#676767;}
	.st3{fill:#686868;}
	.st4{fill:#706E6E;}
	.st5{fill:#737070;}
	.st6{fill:#747373;}
	.st7{fill:#FFFEFE;}
	.st8{fill:#FCFCFC;}
	.st9{fill:#F7F8F8;}
</style>
<title>Nigeria-Logo</title>
<path class="st0" d="M723.4,233.6c0.6,125.9-101.6,233.1-233.2,233.3C361.9,467,256.5,363.6,256.6,233.3
	C256.7,101.4,364.2-0.3,490.4,0C619.7,0.3,724,105.8,723.4,233.6z M499.2,141.4c-0.4,37.7,31.2,68.2,68.2,68.2
	c35.4,0,68.1-28.6,68.2-68.3c0.1-40.1-32.7-68.4-67.8-68.5C531.4,72.7,498.8,103,499.2,141.4z"/>
<path class="st1" d="M942.1,690.4c-0.8-0.3-1-0.1-1.2,0.3c-5.7,9.7-14.7,15-25.3,17.1c-18.8,3.7-36.3,0.1-51.8-11.4
	c-12.8-9.5-19.9-22.6-22-38.2c-2.3-15.8,0.2-31.9,7.1-46.3c10.1-21,26.9-33.7,49.6-38.5c9.2-2.1,18.7-2.6,28-1.4
	c23.3,3.2,39.2,15.8,47.8,37.5c3,7.4,4.6,15.2,4.6,23.2c-0.2,23.4,0.8,46.8,1.2,70.2c0.2,9.2-1.4,18.4-4.6,27.1
	c-7.5,19.8-21.3,33.4-41.4,40.1c-16.2,5.5-33.6,5.9-50.1,1.3c-6.1-1.6-11.8-4.3-16.9-7.9c-8.7-6.2-13.5-14.4-13-25.3
	c0.2-3.9,0-7.7,0-11.6c0-0.8,0.2-1.6,1-1.8c0.8-0.2,1.5,0.1,2,0.7c3.5,3.3,7.5,6,11.9,8c6,2.8,12.4,4.8,18.9,5.8
	c6.7,1.1,13.5,1.5,20.2,1.1c5.5-0.2,11-1.3,16.2-3.3c9.8-4,15.7-11.3,17.8-21.6c1.1-5.3,1.4-10.7,0.8-16
	C942.4,696.3,942.3,693.3,942.1,690.4z M941.4,640.4c0-9.1-1-14.7-3.5-20.2c-4.9-11.1-14.3-16.2-26.1-15.6s-21,6.5-26.8,16.9
	c-6.4,11.2-7.5,24.7-2.8,36.8c4.8,13,17,22.1,34.6,18.4c11-2.3,18-9.5,21.9-19.8C940.6,651.6,941.5,646,941.4,640.4L941.4,640.4z"/>
<path class="st1" d="M128.7,582.9c-1.4-0.1-2-1.2-2.8-1.9c-10.1-9.4-22.3-14-35.8-15.7c-8.1-1-16.2-1-24.3,0
	c-5.5,0.5-10.9,2-15.9,4.4c-8.2,4.2-12.2,10.9-11.9,20.1c0.1,4.3,2,8.4,5.3,11.1c2.5,2.1,5.4,3.9,8.5,5.2c7,2.9,14.2,5.2,21.5,6.9
	c6.3,1.5,12.6,2.8,18.8,4.5c8.4,2.2,16.3,6,23.4,11c10.2,7.4,17,17.1,18.5,29.6c3.4,27.7-7.7,54.3-38.1,65.4
	c-13.7,5-28,6.2-42.5,5.1c-7.2-0.4-14.3-1.7-21.1-3.8c-4.7-1.5-9.3-3.6-13.4-6.3c-9.5-6.5-14.5-15.5-14.7-27c-0.1-5.2,0-10.3,0-15.5
	c0-1.2,0.9-1.6,1.8-1c1.2,0.9,2.3,1.9,3.5,2.8c17.6,13.7,37.5,19,59.6,16.4c4.8-0.4,9.5-1.6,13.9-3.3c4.9-2.1,8.9-5.2,11.2-10.2
	c2.7-6,2.8-12.2,1.3-18.4c-0.8-3.1-3-5.5-5.5-7.4c-2.9-2-6-3.7-9.3-4.8c-8.5-3.1-17.2-5.5-26-7.3c-6.7-1.3-13.3-3.2-19.7-5.5
	c-7.1-2.5-13.8-6.3-19.6-11.1C3.9,616.7-1,604.2,0.2,589.6c2.1-25.7,16.4-42.7,39.6-52.7c8.2-3.5,16.9-5.4,25.8-5.7
	c10.7-0.4,21.4-0.2,31.9,2.3c5.8,1.3,11.3,3.5,16.4,6.4c5.3,3,9.7,7.5,12.5,12.9c1.6,2.9,2.6,6.1,2.8,9.5c0.2,6.4,0.2,12.9,0.3,19.3
	C129.4,582,129,582.5,128.7,582.9z"/>
<path class="st1" d="M319.8,666.3c-6.8,0-13.6,0-20.5,0c-2.1,0-2.6,0.7-2.2,2.7c1.1,5.1,3.4,9.8,6.7,13.8c6.1,7.2,13.9,11.3,23,13.3
	c7.5,1.7,15,1.4,22.6,0.8c5.7-0.5,11.3-1.6,16.8-3.3c6.5-2,12.6-5.3,17.9-9.7c1.1-1,2.3-0.5,2.3,1c0,5.3,0.3,10.7-0.6,16
	c-1.1,7.6-5.4,14.3-11.7,18.6c-5.4,3.6-11.4,6.1-17.8,7.2c-11.3,2.2-22.6,3.1-34.1,1.6c-27.5-3.6-53.5-23.4-61.7-53.8
	c-2.5-9.4-3.4-19.3-2.6-29c0.6-8.6,2.2-17.2,4.9-25.4c5.5-15.8,14.7-28.8,29-37.8c9.5-6,20-9.2,31.1-10.5c11.6-1.5,23.3,0.2,34,4.8
	c17.9,7.9,29.3,21.3,33.5,40.5c1.6,6.7,1.8,13.6,0.7,20.3c-1.5,8-5.4,14.4-12.3,18.9c-5,3.1-10.5,5.3-16.3,6.5
	c-8.8,2-17.8,3.1-26.8,3.3c-5.3,0.2-10.7,0-16,0L319.8,666.3z M315.3,639.7c7.5-0.1,15.5,0,23.6-1.2c3.8-0.4,7.6-1.4,11.2-2.8
	c4.1-1.6,6.7-5.6,6.6-9.9c0.1-8.5-3.3-16.1-12-20c-7.8-3.5-16.6-4.2-24.8-2c-10,2.6-16.5,9.3-20.5,18.5c-2,4.5-2.5,9.2-2.9,14
	c-0.3,2.9,0,3.3,2.8,3.3C304.4,639.8,309.6,639.7,315.3,639.7L315.3,639.7z"/>
<path class="st2" d="M817.8,676.1c0,14,0,28,0,42c0,1.1,0,2.2,0,3.3c-0.1,4.2-0.2,4.3-4.4,4.3c-4.4,0-8.8,0.2-13.2-0.9
	c-9.5-2.3-16.2-7.6-19.1-17.2c-0.8-2.9-0.7-5.8-0.7-8.8c0-18.6,0-37.2,0-55.8c0.1-5.7-0.6-11.4-1.9-17c-0.7-3-1.9-6-3.5-8.7
	c-2.7-4.9-7.1-8.6-12.4-10.5c-6.4-2.5-13.5-2.9-20.1-1.2c-5.8,1.4-10.8,5-14.1,10c-2.9,4.3-4.7,9.2-5.3,14.4
	c-0.6,4-0.8,8.1-0.8,12.1c0,25.8,0,51.6,0,77.4c0,6.8,0.4,6.2-6.3,6.2c-3.7,0.1-7.4-0.1-11-0.7c-11.4-2.3-18.5-10-19.8-21.5
	c-0.2-2-0.3-4-0.3-6.1c0-19.7,0-39.5,0-59.2c0-8,0.8-15.8,3.3-23.5c6.5-19.7,19.4-33.2,39.2-39.6c14.9-4.8,30-5.5,45.2-1.2
	c23.8,6.9,38,22.8,43.5,46.8c1.3,6.2,1.9,12.4,1.8,18.7C817.8,651.7,817.8,663.9,817.8,676.1z"/>
<path class="st3" d="M159.9,626.2c0-15.3,0-30.6,0-45.9c-0.1-2.9,0.1-5.9,0.5-8.8c1.9-12.3,9.2-21.1,19-27.9
	c4.8-3.4,10.4-3.3,16-2.8c1,0.1,1.7,0.9,1.7,1.9c0.1,1.3,0.1,2.6,0.1,3.9c0,7.4,0,14.8,0,22.1c0,1.3,0,2.6,0,3.9
	c-0.1,1,0.6,2,1.6,2.1c0.1,0,0.3,0,0.4,0c1.5,0,2.9,0.1,4.4,0.1h38.7c1.1,0,2.2,0,3.3,0c3.6,0.1,3.7,0.1,3.7,3.8c0,3.1,0,6.3,0,9.4
	c-0.1,10.7-6.5,18.2-17.1,19.7c-2.7,0.4-5.5,0.5-8.3,0.5c-6.8,0.1-13.6,0-20.5,0c-1.3,0-2.6,0-3.9,0c-1.8,0.1-2.4,0.6-2.5,2.3
	c-0.1,1.1-0.1,2.2-0.1,3.3c0,17.5,0,35,0,52.5c-0.1,4.2,0.3,8.5,1.3,12.6c2.6,9,8.1,14,17.8,14.9c10.3,0.9,20.6,0.3,30.3-4.2
	c2-1,2.8-0.5,2.8,1.6c0,4,0.1,8.1,0,12.2c-0.5,9.7-5.2,16.7-14.1,20.7c-3.4,1.5-7,2.5-10.6,2.9c-10.3,1-20.6,0.6-30.7-2.5
	c-16.7-5.1-27.3-16.2-31.7-33.1c-1.6-6.1-2.4-12.3-2.3-18.6C159.9,657.1,159.9,641.6,159.9,626.2L159.9,626.2z"/>
<path class="st3" d="M516.1,606.9c0-25.8,0-51.6,0-77.4c0-5.3-0.2-5.1,5.2-5.1c2.8,0,5.5,0,8.3,0.1c3.1,0.1,6.2,0.7,9.2,1.8
	c7.5,2.7,12.1,8.1,14,15.8c0.7,3.2,1,6.6,0.9,9.9c0,40.2,0,80.3,0,120.5c0,2.6,0,5.2,0.2,7.7c0.6,7.8,4.7,12.6,12.1,14.6
	c3.2,0.9,6.5,1.3,9.8,1.3c3.7,0,7.4,0,11.1,0.1c1.2,0,2.2,0.5,2.2,1.9c0.1,5,0.3,10-1,14.8c-1.4,5.7-5.5,10.3-11.1,12.1
	c-2.6,1-5.3,1.6-8,1.8c-8.3,0.8-16.6-0.1-24.6-2.5c-15.2-4.8-23.8-15.4-27-30.7c-0.9-4.7-1.3-9.5-1.2-14.3
	C516.1,655.2,516.1,631,516.1,606.9z"/>
<path class="st3" d="M451.6,677.6c0,14.4,0,28.8,0,43.2c0,5-0.1,5-4.8,5s-9.6,0.1-14.3-1c-8.5-1.9-14.8-6.4-17.5-15
	c-0.9-2.8-1.3-5.8-1.3-8.7c0-23.2-0.1-46.5,0.1-69.7c-0.1-9.8,2-19.5,6-28.5c7.6-16.3,20.4-25.7,38-28.6c7.3-1.3,14.7-1.3,22,0.1
	c3.4,0.7,6.7,1.9,9.8,3.7c6.9,4,11.1,11.3,11.2,19.2c0.1,3.7,0.1,7.4,0,11.1c0,2.7-0.7,3.1-3.5,2.2c-1.2-0.4-2.4-0.9-3.7-1.3
	c-7.1-2.2-14.5-2.9-21.9-1.9c-8.4,1.1-14.2,5.7-17.4,13.5c-1.4,3.4-2.2,7-2.4,10.7c-0.2,4.2-0.3,8.5-0.3,12.7
	C451.5,655.4,451.6,666.5,451.6,677.6z"/>
<path class="st3" d="M603.6,633.8c0-17,0-33.9,0-50.9c0-4.9,0-4.9,4.8-5c4.4-0.2,8.9,0.1,13.2,0.8c9.9,2,16,7.9,18.4,17.6
	c0.8,3.6,1.2,7.3,1.2,11c0,22.1,0,44.3,0,66.4c0,2.4-0.1,4.8,0.2,7.2c0.7,7.3,3.9,12.7,12.7,14.5c4,0.7,8.1,0.9,12.1,0.8
	c4.9,0,4.9,0,4.9,4.9c0.1,4.1-0.2,8.1-0.9,12.1c-1.6,7-5.7,11.4-12.7,13c-2.3,0.5-4.7,0.9-7.1,0.9c-5.9,0.2-11.8-0.5-17.5-2
	c-14-3.8-22.8-12.9-26.9-26.7c-1.6-5.7-2.4-11.6-2.3-17.5C603.6,665.1,603.6,649.5,603.6,633.8L603.6,633.8z"/>
<path class="st3" d="M600.3,541.9c0-12,9.7-21.7,21.7-21.8c12.1,0,22.5,10.2,22.1,22.1c-0.2,12-9.9,21.7-21.9,21.8
	c-12,0.1-21.9-9.6-22-21.6C600.2,542.3,600.2,542.1,600.3,541.9z"/>
<path class="st4" d="M599.5,777.7c1.1-1,2-1.9,3-2.6c6.4-4.8,16.6-2.2,18,6.8c0.3,1.3,0.4,2.5,0.5,3.8c0.1,5.3,0,10.7,0,16
	c0,1.1,0,2.3-1.5,2.6c-1.3,0.2-2.6-0.4-3.3-1.5c-0.5-1-0.7-2.1-0.6-3.2c0-4,0-8.1,0-12.2c0.1-2-0.3-4.1-1.1-5.9
	c-1.1-2.6-3.1-3.6-6.3-3.5c-3,0.1-5.1,1.5-5.8,4.2c-0.4,2-0.6,4-0.6,6c-0.1,4.4,0,8.8,0,13.3c0,1.1,0.1,2.3-1.2,2.8
	c-1.7,0.4-3.4-0.6-3.9-2.2c-0.3-1.3-0.4-2.5-0.4-3.8c0-3.3,0-6.6,0-10c0-1.8-0.2-3.7-0.6-5.5c-0.6-3-3.4-5.1-6.5-4.9
	c-3.1,0.1-4.9,1.5-6,4.7c-0.5,2-0.7,4-0.6,6c0,4.6,0,9.2-0.1,13.8c0,1-0.8,1.8-1.8,1.9c-0.3,0-0.6-0.1-0.9-0.2
	c-2.1-0.8-2.6-2.4-2.7-4.4c0-4.8-0.1-9.6,0.1-14.4c0.1-1.8,0.5-3.6,1.3-5.3c2.6-6.1,9.5-9,15.7-6.5
	C596.4,774.4,597.8,776.1,599.5,777.7z"/>
<path class="st5" d="M717.4,783.8c0.3,1,1.2,1.3,1.9,1.8c6,4.3,4.1,12.7-0.5,16.3c-1,0.8-2.2,1.4-3.4,1.8c-4.8,1.4-9.9,1.5-14.7,0.3
	c-3.2-0.7-4.9-3.1-5.3-6.4c-0.1-0.9-0.1-1.8-0.1-2.8c0-8.1,0-16.2,0-24.3c0-4.4,0-4.4,4.5-5.3c4.4-0.8,8.8-0.9,13.2-0.3
	c5.4,0.8,9.7,4.5,9.1,11.1c-0.1,2-0.9,4-2.4,5.4C719,782.2,717.8,782.6,717.4,783.8z M700.7,791.8c0,0.9,0,1.8,0,2.8
	c0,0.4,0,0.7,0,1.1c0.2,2.3,1.1,3.6,3.2,3.9c3.2,0.7,6.6,0.6,9.8-0.5c3-1.2,4.2-3.4,3.9-7.1c-0.3-3-1.6-4.7-4.6-5.3
	c-2.2-0.4-4.4-0.6-6.5-0.6C700.4,786,700.7,785.8,700.7,791.8L700.7,791.8z M706.9,781.8c2-0.1,4-0.3,6-0.6c2.5-0.5,3.9-2.5,4-5.2
	c0.1-2.9-1-4.7-3.4-5.7c-2.2-0.8-4.6-1.1-7-0.9c-5.5,0.2-5.8,0.5-5.8,6C700.6,782.1,700.2,781.6,706.9,781.8L706.9,781.8z"/>
<path class="st4" d="M339.7,785.5c-0.2,2.6-0.6,5.1-1.4,7.6c-2.8,7.7-8.8,12-16.8,11.8c-7.6,0-14.3-5.2-16.3-12.5
	c-1.6-5.3-1.5-11,0.4-16.3c2.8-8,9-12.1,17.9-11.7c7.4,0.3,13.3,5.2,15.3,12.8C339.6,780,339.9,782.8,339.7,785.5z M309.5,784.1
	c-0.1,2.4,0.3,4.8,1,7.1c1.6,5.7,5.9,8.8,11.8,8.8c5.5,0,9.6-3.2,11.3-8.8c1.2-4.3,1.2-8.7,0-13c-1.5-5.8-5.6-8.9-11.6-9
	c-5.7,0-9.8,2.9-11.5,8.4C309.7,779.7,309.4,781.9,309.5,784.1z"/>
<path class="st5" d="M404.1,797.4c1,3.2-0.4,4.9-2.8,6.1c-7.8,4-17.8,0.3-20.6-7.9c-2.1-5.5-1.4-11.6,1.7-16.5
	c3.7-6.2,11.6-8.2,17.9-4.7c3.8,2.1,6,6.4,5.3,10.7c-0.2,2.1-1.5,3.9-3.4,4.7c-2,0.9-4.2,1.4-6.5,1.3c-2.9,0-5.9,0-8.8,0.1
	c-0.8,0.1-1.4,0.7-1.4,1.6c0,0.1,0,0.3,0.1,0.4c1,3.8,4.2,6.3,8.5,6.7C396.9,800.2,398.8,799.7,404.1,797.4z M392.6,786.9
	c0.9-0.1,3.1-0.1,5.3-0.4c1.9-0.3,2.7-1.7,2.4-3.7c-0.1-2.1-1.5-3.9-3.5-4.5c-4.4-1.5-9.7-0.1-11.3,5.7c-0.5,1.9,0,2.8,2,2.9
	C388.7,786.9,390,786.9,392.6,786.9z"/>
<path class="st5" d="M652.9,797c0.5,4.3-1.4,6.2-4.3,7.1c-10.5,3.1-18.5-2.1-20.3-11.3c-0.9-4.6-0.1-9.3,2.4-13.3
	c3.5-5.8,10.3-8.2,16.3-5.8c3.7,1.3,6.5,4.6,7.1,8.5c0.6,3.3-0.3,7.3-5.2,8.4c-1.4,0.3-2.9,0.5-4.3,0.7c-2.2,0.1-4.4,0-6.6,0.1
	c-1.2,0-2.8-0.5-3.5,0.7c-0.9,1.7,0.2,3.2,1.3,4.5c2.5,3,5.8,3.8,9.5,3.4C647.9,799.5,650.5,798.5,652.9,797z M633.9,786.6
	c4,0.5,8,0.5,12-0.1c2.9-0.4,3.9-2.6,2.6-5.3c-0.7-1.5-2-2.7-3.6-3.1C639,776.2,634.1,780,633.9,786.6L633.9,786.6z"/>
<path class="st5" d="M730.8,780.8c-0.8-2.2,0.2-3.8,1.8-5.3c4.2-3.7,12.7-3.8,17-0.2c1.9,1.5,3.1,3.7,3.3,6.2c0.2,5,0.3,9.9,0,14.9
	c-0.1,3.4-2.4,6.4-5.7,7.5c-3.8,1.5-8.1,1.5-11.8-0.1c-3.7-1.5-6.1-4.2-6-8.4c-0.1-3.8,2.3-7.3,5.9-8.5c1.5-0.6,3.1-1,4.8-1.2
	c1.6-0.3,3.3-0.2,5-0.3c2.2-0.2,2.9-1.1,2.5-3.2c-0.3-2.3-2.2-4-4.5-4.2c-3.1-0.6-6.3-0.1-9.1,1.4
	C732.9,779.9,732.2,780.9,730.8,780.8z M743.7,790c-3.6,0-5.2,0.3-6.8,1.5c-2,1.3-2.5,4-1.2,6c0.2,0.2,0.3,0.4,0.5,0.6
	c2.4,2.1,5.3,2.3,8.2,1.4c2.8-0.9,3.3-3.1,3.3-5.7c0-0.5,0-1.1,0-1.6c-0.1-1.7-0.6-2.1-2.4-2.2C744.8,790,744.2,790,743.7,790
	L743.7,790z"/>
<path class="st4" d="M799.6,785.1c2-0.2,2.5-1.3,3.2-2.1c2.3-2.4,4.5-4.8,6.8-7.3c1.9-2.3,5.1-3.1,7.8-2c0,1.3-1,1.7-1.6,2.3
	c-2.7,2.8-5.5,5.5-8.1,8.3c-3.4,3.6-3.4,3-0.1,7.2c2.9,3.8,5.9,7.6,10,10.2c0.8,0.5,0.5,1.9-0.4,2.3c-1.9,0.9-4.1,0.6-5.7-0.8
	c-1.5-1.4-2.9-2.8-4.2-4.4c-1.9-2.2-3.7-4.5-5.6-6.8c-0.3-0.5-0.9-0.7-1.4-0.5c-0.7,0.3-0.6,0.9-0.6,1.4c-0.1,3.3-0.1,6.6-0.2,9.9
	c-0.1,0.9-0.9,1.6-1.8,1.5c-0.2,0-0.4-0.1-0.6-0.2c-1.1-0.3-1.9-1.1-2.2-2.2c-0.2-1.1-0.3-2.2-0.3-3.3c0-10.8,0-21.7,0-32.6
	c0-0.4,0-0.7,0-1.1c0.1-1.1,0.1-2.3,1.6-2.4c1.3-0.2,2.6,0.6,3.1,1.8c0.3,1.1,0.4,2.2,0.4,3.3c0,4,0,8.1,0,12.2L799.6,785.1z"/>
<path class="st4" d="M230.7,788.9c0.1,2.3-0.3,4.6-1.1,6.8c-1.9,5.3-5.4,8.6-11.3,9.2s-11.3-2-13.8-7.2c-3-5.9-2.8-12.9,0.6-18.5
	c2.6-4.6,7-6.5,12.1-6.3c5.2,0,9.8,3.1,11.8,7.8C230.2,783.2,230.8,786,230.7,788.9z M225.2,789.2c0.2-2.5-0.4-5-1.6-7.2
	c-2.9-5.2-10.6-5.6-13.9-0.8c-2.9,4.2-2.6,11.7,0.6,15.6c1.9,2.3,4.9,3.5,7.9,3c3.2-0.4,5.2-2.4,6.2-5.5
	C225,792.6,225.3,790.9,225.2,789.2z"/>
<path class="st4" d="M570.2,788.6c0,2.5-0.4,5-1.3,7.4c-1.9,5.1-5.4,8.2-11,8.8s-10.1-1.4-13.3-6.1c-3.8-5.8-3.4-15.4,0.8-20.9
	c5.9-7.6,18.4-6.4,22.8,2.1C569.6,782.6,570.3,785.6,570.2,788.6z M564.8,789.3c0.1-2.7-0.5-5.3-1.8-7.7c-3-4.8-10.3-5.1-13.6-0.6
	c-2.9,4.2-2.7,11.7,0.4,15.6c3.7,4.6,11.8,4.7,14.2-2.2C564.6,792.8,564.8,791,564.8,789.3L564.8,789.3z"/>
<path class="st5" d="M237.8,783.4c0-2.6,0-5.2,0-7.7c0-1,0.2-1.9,1.3-2.2c0.9-0.2,1.9,0,2.6,0.5c0.8,0.5,1.2,1.4,1.3,2.3
	c0.1,1.3,0.2,2.6,0.2,3.8c0,2.9-0.1,5.9,0.1,8.8c0,1.8,0.3,3.7,0.7,5.4c1,3.8,4.8,6.1,8.6,5.1c0.2,0,0.3-0.1,0.5-0.1
	c2-0.5,3.7-2,4.2-4c0.6-2,0.8-4,0.8-6c0-4.6,0-9.2,0-13.8c0-0.9,0-1.9,1.2-2.2c0.9-0.3,1.9-0.1,2.6,0.5c0.5,0.5,1,1.1,1.2,1.8
	c0.3,0.9,0.4,1.8,0.4,2.7c0,4.4,0,8.8,0,13.3c0,0.7-0.1,1.5-0.2,2.2c-1.4,8.8-9.4,13.4-17.7,10.1c-3.5-1.3-6.1-4.3-7-8
	c-0.5-2-0.8-4-0.8-6C237.6,787.9,237.7,785.7,237.8,783.4L237.8,783.4z"/>
<path class="st5" d="M453.7,772.8c-1.2,0-1.8-1.1-2.8-1.6c-6.5-3.9-15-1.7-18.8,4.8c-0.7,1.2-1.3,2.6-1.6,4c-0.9,4-0.5,8.2,1.3,11.9
	c2.8,6.4,9.8,9.3,16.6,7.3c1.6-0.6,3-1.3,4.4-2.2c0.3-0.1,0.6-0.1,0.9,0c0.2,0.3,0.3,0.6,0.3,1c-0.2,2.1-1.4,3.9-3.2,4.9
	c-1.2,0.8-2.6,1.3-4.1,1.6c-7.3,1.5-14.7-1.6-18.7-7.9c-4.6-7.5-4.8-15.3-0.5-23.1c3.4-6.2,10.2-10.3,19.3-8.9
	c3.2,0.3,6,2.5,7.1,5.5C454.3,771,454.3,772,453.7,772.8z"/>
<path class="st4" d="M786.5,793.7c0,2.8,0,5.5,0,8.3c0,1.1-0.1,2.3-1.6,2.4c-1.3,0.3-2.6-0.4-3.2-1.7c-0.4-1-0.5-2.1-0.5-3.2
	c-0.1-3.7,0-7.4-0.1-11c0-1.8-0.2-3.7-0.5-5.5c-0.6-3-2.6-4.6-5.8-5c-3.7-0.4-6.1,0.7-7.5,3.4c-0.8,1.7-1.2,3.5-1.1,5.3
	c0,4.4,0,8.8,0,13.3c0,1.1,0,2.2-0.2,3.3c-0.1,0.8-0.9,1.1-1.7,1.1c-1.3,0.1-2.6-0.7-3-2c-0.3-0.9-0.5-1.8-0.5-2.7
	c0-4.6,0-9.2,0-13.8c0.2-7.5,6.5-13.4,14-13.1c1.8,0.1,3.5,0.5,5.2,1.2c3.4,1.6,5.7,4.9,6,8.7c0.4,3.6,0.4,7.3,0.6,11L786.5,793.7z"
	/>
<path class="st5" d="M459.7,783.9c0-2.9,0-5.9,0-8.8c0-1.2,1.1-1.8,2.3-1.6c1.5,0.2,2.7,1.5,2.8,3c0.2,1.5,0.2,2.9,0.2,4.4
	c0.1,3.9,0,7.7,0.2,11.6c0.2,3.4,1.9,5.9,5.3,7c3.4,1.3,7.2-0.5,8.5-3.9c0.1-0.2,0.2-0.4,0.2-0.7c0.4-1.6,0.6-3.3,0.5-4.9
	c0.1-4.6,0-9.2,0.1-13.8c0-1.1-0.1-2.3,1.3-2.7c1.5-0.3,3,0.4,3.6,1.8c0.2,0.5,0.4,1,0.4,1.6c0,5.5,0.3,11-0.1,16.5
	c-0.5,7.2-5.2,11.3-12.4,11.5c-6.9,0.1-12-4.1-12.8-11.1C459.7,790.5,459.6,787.2,459.7,783.9L459.7,783.9z"/>
<path class="st6" d="M372.3,793c0,3.3,0.1,6.6,0,9.9c0,1.1-1,1.5-2,1.3c-1.8-0.2-2.8-1.1-3.1-2.7c-0.1-1.1-0.2-2.2-0.2-3.3
	c0-3.3,0-6.6,0-10c0-1.3,0-2.6-0.1-3.9c-0.6-5.6-6-8.5-11-5.9c-1.9,0.9-3.1,2.7-3.4,4.8c-0.2,1.7-0.3,3.3-0.3,5c0,4.4,0,8.8,0,13.3
	c0,1.1,0,2.3-1.4,2.6c-1.5,0.3-3-0.5-3.6-1.9c-0.2-0.7-0.4-1.4-0.4-2.2c0-5-0.2-10,0-14.9c0.5-11.8,11.4-14.5,18.6-11.6
	c4.4,1.8,6.4,5.5,6.8,10C372.6,786.8,372.3,790,372.3,793L372.3,793z"/>
<path class="st5" d="M493,797c2.1,1.2,4.4,2.1,6.7,2.7c2.2,0.5,4.4,0.4,6.5-0.4c1.4-0.5,2.4-1.8,2.4-3.3c0.3-1.5-0.6-3-2-3.6
	c-1.9-0.7-3.8-1.3-5.7-1.9c-1.6-0.4-3.2-0.9-4.7-1.5c-3.5-1.7-4.8-5-3.5-8.8c0.4-1.4,1.2-2.7,2.2-3.8c3.7-3.7,10.8-4.8,15.4-2.2
	c0.9,0.6,1.8,1.3,2.5,2.2c1,1.2,1.1,3.1,0.3,3.5c-1,0.6-1.7-0.2-2.5-0.6c-2.5-1.1-5.3-1.5-8.1-1.1c-1.3,0.1-2.5,0.7-3.5,1.5
	c-1.3,1-1.5,2.9-0.5,4.2c0.3,0.3,0.6,0.6,0.9,0.8c1.2,0.5,2.4,0.9,3.6,1.3c2.1,0.7,4.3,1.2,6.3,2c6.7,2.7,5.6,11.1,1.8,14.2
	s-11.5,3.8-15.6,1.1c-0.6-0.4-1.2-0.9-1.6-1.5c-0.4-0.6-0.8-1.3-0.9-2C492.9,798.8,492.9,797.9,493,797z"/>
<path class="st6" d="M198.6,767.3c-0.3,1.6-0.9,3.1-1.8,4.5c-2.4,4.6-5.1,8.9-8.2,13c-1.6,2-2.4,4.6-2.2,7.1c0.1,3.3,0,6.6,0,9.9
	c0,1.1-0.1,2.3-1.6,2.5c-1.5,0.3-3-0.6-3.6-2c-0.2-0.9-0.3-1.8-0.3-2.7c0-2.8-0.1-5.5,0-8.3c0.1-2.2-0.6-4.4-1.9-6.1
	c-3.6-5.1-6.7-10.6-9.2-16.3c-0.4-0.8-0.7-1.7-0.9-2.6c-0.1-0.7,0.3-1.3,0.9-1.4c0.1,0,0.2,0,0.3,0c1.9-0.3,3.7,0.6,4.6,2.3
	c1,1.8,1.7,3.7,2.7,5.4c1.7,3,3.5,6.1,5.3,9c0.8,1.3,1.7,1.2,2.6-0.1c2.7-4,5.1-8.1,7.1-12.4c0.5-1.2,1.1-2.3,1.7-3.4
	c0.7-1.1,1.9-1,3-0.6C198.2,765.3,198.7,766.3,198.6,767.3z"/>
<path class="st5" d="M526.7,767.5c1.2,1.7-0.7,4.5,1.5,5.5c1.5,0.7,3.6,0.3,5.4,0.4c0.5,0,1.1,0,1.7,0c1.1,0,2.4,0,2.4,1.6
	c0.2,1.4-0.7,2.6-2,3c-1.3,0.3-2.5,0.5-3.8,0.5c-0.9,0.1-1.8,0-2.8,0.1s-1.8,0.6-1.8,1.7c0,5-0.2,9.9,0.1,14.9
	c0.1,3,2.1,4.6,5.1,4.7c0.9,0,1.8-0.1,2.7-0.3c1.6-0.1,2.3,0.8,1.9,2.3c-0.3,1.3-1.3,2.3-2.6,2.7c-5.9,2-11.4-1.1-12.6-7.2
	c-0.2-0.9-0.3-1.8-0.3-2.7c0-6.6,0-13.2,0-19.9c-0.1-2,0.5-4.1,1.7-5.7C524.4,768,525.3,767.1,526.7,767.5z"/>
<path class="st6" d="M661.6,792.3c0-2.4-0.1-4.8,0-7.2c0.1-2.4,0.7-4.8,1.8-6.9c2.2-4,7-5.9,11.4-4.5c1.8,0.5,3,2.3,2.8,4.2
	c0,0.7-0.3,1.4-1.4,1.2c-1.1-0.3-2.1-0.5-3.2-0.6c-3.2-0.2-4.9,1-5.5,4.1c-0.3,1.8-0.5,3.6-0.5,5.5c-0.1,4.6,0,9.2,0,13.8
	c0,0.9-0.1,1.9-1.1,2.3c-1.3,0.3-2.6-0.1-3.5-1.2c-0.6-0.9-0.9-2-0.9-3.1C661.5,797.5,661.5,794.9,661.6,792.3L661.6,792.3z"/>
<path class="st6" d="M271.7,792.2c0-2.4,0-4.8,0-7.2c0-2.6,0.8-5.1,2.1-7.3c2.2-3.6,6.5-5.2,10.6-4.1c1.3,0.2,2.4,1.1,2.9,2.3
	c0.5,0.8,0.6,1.8,0.2,2.7c-0.6,1.1-1.5,0.5-2.4,0.3c-0.5-0.1-1.1-0.2-1.6-0.3c-4-0.3-5.8,1.2-6.3,5.2c-0.2,2.2-0.1,4.4-0.2,6.6
	c0,4,0,8.1-0.1,12.1c0,1.4-1.1,2.1-2.8,1.7c-1.5-0.3-2.6-1.7-2.5-3.2C271.6,798.1,271.7,795.2,271.7,792.2L271.7,792.2z"/>
<path class="st7" d="M499.2,141.4c-0.4-38.4,32.1-68.7,68.5-68.6c35.2,0.1,67.9,28.4,67.8,68.5c-0.1,39.7-32.8,68.3-68.2,68.3
	C530.4,209.6,498.8,179.1,499.2,141.4z"/>
<path class="st8" d="M315.3,639.7c-5.8,0-10.9,0-16.1,0c-2.8,0-3.1-0.5-2.8-3.3c0.4-4.8,1-9.5,2.9-14c4-9.3,10.5-16,20.5-18.5
	c8.3-2.2,17-1.5,24.8,2c8.7,3.9,12.1,11.4,12,20c0.1,4.4-2.5,8.4-6.6,9.9c-3.6,1.4-7.3,2.4-11.2,2.8
	C330.9,639.8,322.8,639.7,315.3,639.7z"/>
<path class="st9" d="M700.7,791.8c0-6-0.3-5.8,5.7-5.7c2.2,0,4.4,0.2,6.5,0.6c3.1,0.6,4.4,2.3,4.6,5.3c0.3,3.7-0.9,5.9-3.9,7.1
	c-3.1,1.1-6.5,1.2-9.8,0.5c-2-0.4-2.9-1.7-3.2-3.9c0-0.4,0-0.7,0-1.1C700.7,793.6,700.7,792.7,700.7,791.8z"/>
<path class="st9" d="M706.9,781.8c-6.7-0.2-6.2,0.3-6.2-6.4c0-5.5,0.3-5.9,5.8-6c2.4-0.2,4.8,0.1,7,0.9c2.4,1,3.5,2.8,3.4,5.7
	c-0.1,2.7-1.5,4.7-4,5.2C710.8,781.5,708.9,781.7,706.9,781.8z"/>
<path class="st9" d="M309.5,784.1c-0.1-2.2,0.3-4.4,1-6.5c1.7-5.5,5.8-8.5,11.5-8.4c6.1,0.1,10.1,3.2,11.6,9c1.2,4.3,1.2,8.7,0,13
	c-1.6,5.5-5.8,8.7-11.3,8.8c-5.9,0-10.3-3.2-11.8-8.8C309.8,788.9,309.4,786.5,309.5,784.1z"/>
<path class="st9" d="M392.6,786.9c-2.6,0-3.9,0-5.2,0c-1.9-0.1-2.5-1-2-2.9c1.6-5.8,6.9-7.2,11.3-5.7c2,0.6,3.4,2.4,3.5,4.5
	c0.3,1.9-0.5,3.4-2.4,3.7C395.7,786.8,393.5,786.8,392.6,786.9z"/>
<path class="st9" d="M633.9,786.6c0.2-6.6,5-10.3,10.9-8.5c1.6,0.5,2.9,1.6,3.6,3.1c1.3,2.6,0.3,4.9-2.6,5.3
	C641.9,787.1,637.9,787.1,633.9,786.6z"/>
<path class="st9" d="M743.7,790c0.5,0,1.1,0,1.6,0c1.8,0.1,2.3,0.6,2.4,2.2c0,0.5,0,1.1,0,1.6c0,2.5-0.6,4.8-3.3,5.7
	c-3,0.9-5.8,0.7-8.2-1.4c-1.7-1.7-1.7-4.4,0-6.1c0.2-0.2,0.4-0.4,0.6-0.5C738.5,790.3,740.1,790,743.7,790z"/>
<path class="st9" d="M225.2,789.2c0.1,1.7-0.2,3.5-0.7,5.2c-1.1,3-3,5.1-6.2,5.5c-3,0.5-6-0.7-7.9-3c-3.2-3.9-3.5-11.4-0.6-15.6
	c3.3-4.8,11-4.4,13.9,0.8C224.9,784.2,225.4,786.7,225.2,789.2z"/>
<path class="st9" d="M564.8,789.3c0,1.7-0.2,3.5-0.8,5.1c-2.3,7-10.4,6.8-14.2,2.2c-3.2-3.9-3.4-11.4-0.4-15.6
	c3.2-4.6,10.6-4.3,13.6,0.6C564.3,784,564.9,786.6,564.8,789.3z"/>
</svg>
