<?xml version="1.0" encoding="utf-8"?>
<!-- Generator: Adobe Illustrator 22.0.1, SVG Export Plug-In . SVG Version: 6.00 Build 0)  -->
<svg version="1.1" id="Layer_1" xmlns="http://www.w3.org/2000/svg" xmlns:xlink="http://www.w3.org/1999/xlink" x="0px" y="0px"
	 viewBox="0 0 992 381.4" style="enable-background:new 0 0 992 381.4;" xml:space="preserve">
<style type="text/css">
	.st0{fill:#03B1F0;}
	.st1{fill:#06B4F1;}
	.st2{fill:#05B3F1;}
	.st3{fill:#0AB8F2;}
</style>
<title>Nigeria-Logo</title>
<path class="st0" d="M294.9,80.7c-10.3-1-20.4,1.4-30.4,2.8c-0.9-0.9-0.1-1.6,0.3-2.2C289.2,41.2,323,13.9,369.8,4.5
	c16.5-3.4,33.4-3.9,50.1-1.7c6.7,0.9,12.8-1.6,19.2-2.5c6.1-0.9,7.3,0,4.2,5.3c-6,10.4-2.4,20.6-0.7,31c3,18,6.1,36,9.3,54
	c0.6,3.3-0.1,5.9-2.5,8.1c-4.6,4.2-8.5,9.5-16.3,6.9c-5-1.6-8.8-3.7-9-9.6c-0.1-1.3-0.6-2.6-1.4-3.6c-6.8-7.8-13.4-15.7-21.6-22.1
	c-4.9-3.8-7.6-3.3-11.1,1.9c-3.9,5.9-6.1,12.5-8.6,19c-6,15.4-11.9,30.7-21.7,44.2c-1.9,2.7-3.9,3.9-7.4,3.5
	c-13.4-1.4-26.8-1.8-40.3-1.1c0.3,1.9,1.5,1.8,2.7,2c13.2,1.6,26.4,3.3,39.6,4.9c10.4,1.3,17,12.2,12.8,21.7
	c-8.4,18.3-17.8,36.1-28.1,53.4c-1.3,2.3-3.2,4.3-5.6,5.6c-5.5,3.1-11,6.2-16.5,9.4c-2.2,1.3-3.6,1-4.7-1.4
	c-2.5-5.5-3.5-11.5-2.8-17.5c0.5-3.9,6.9-7,11.7-6c5.9,1.3,8.6-0.9,8.4-7c-0.1-2.9,1.3-5.1,2.7-7.4c4.8-7.6,9.6-15.2,14.4-22.8
	c1-1.6,2.9-3.4,1.6-5.4s-3.6-1.4-5.6-1.2c-8.9,0.8-17.6,1.4-26,5.5c-14.3,6.9-30,9.7-45.7,11.9c-20.4,2.8-41.1,2.5-61.6,6.7
	c0.7-9.3,1.5-18.3-0.1-28.2c-2.4,2.9-2.6,5.4-2.9,7.8c-3.4,29.7-19.9,51.2-43.3,68.2c-14.2,10.2-30.3,17.6-47.4,21.6
	c-11.9,2.9-20.4,9.5-26.3,20.3c-6.7,12.3-11.9,25.3-18.9,37.4c-7.3,12.7-18.4,20.8-33.2,23.1c-7.5,1.2-8.7-0.4-6.5-7.7
	c0.9-3,2.1-6,3.2-8.9c2.4-6.8,5.5-12.5,14.3-11.4c3.3,0.4,5.2-2,6.3-5.2c6.8-18.4,13.9-36.7,20.6-55.1c1-3.2,3.4-5.7,6.6-6.8
	c8-3,16-5.8,23.7-9.1c13.4-5.7,17.2-12,16.3-26.4c-0.8-12.1-2.3-24.2,0.3-36.3c5.2-24.2,21-39.8,41.6-51.4
	c18.5-10.4,38.7-15.7,59-21c22.2-5.7,44.4-11.5,66.6-17.3c1.9-0.5,3.7-1.1,5.6-1.7L294.9,80.7z"/>
<path class="st1" d="M498.2,299.8c23.4,0,41.7,18,41.5,40.8c-0.2,23.1-18.7,41-42.1,40.8c-23.2-0.2-41.1-17.9-41.2-40.6
	C456.4,317.7,474.8,299.7,498.2,299.8z M474.3,340.1c-0.1,14.6,9.9,25.4,23.6,25.5c13.9,0.1,24.1-10.4,24.1-24.9
	c0-14.2-10.4-25.2-24-25.3C484.2,315.4,474.4,325.6,474.3,340.1L474.3,340.1z"/>
<path class="st1" d="M341.7,312.9c5.3-6.9,11.2-11.3,19.2-12.7c17-3,31.5,7.5,32.4,24.7c0.8,15.6,0.4,31.3,0.3,46.9
	c0,5.2-3.6,8.2-8.8,8.1s-8.7-3.1-8.9-8.7c-0.2-6.6-0.1-13.3-0.1-20c0-5.8,0.1-11.7-0.1-17.5c-0.4-11.4-6.4-17.9-16.5-17.9
	c-10.3,0-17.5,7-17.7,18.2c-0.3,12.1,0,24.3-0.1,36.4c0,6-3.2,9.3-8.6,9.4s-9.1-3-9.1-8.3c-0.1-20.8-0.1-41.6,0-62.4
	c-0.1-4.6,3.5-8.4,8-8.6c4.7-0.4,8.9,3,9.6,7.6C341.5,309.5,341.5,310.7,341.7,312.9z"/>
<path class="st2" d="M577.8,312.6c8.1-10.5,18.1-14.7,30.6-12.1c11.8,2.4,20.2,11.6,20.6,23.7c0.5,16,0.2,31.9,0.2,47.9
	c0,4.8-3.5,8.1-8.2,8.2c-4.7,0.2-8.7-3.4-9-8.1c0,0,0,0,0,0c-0.3-6.3-0.1-12.6-0.2-19c-0.1-7.3,0.2-14.7-0.4-21.9
	c-0.8-9.5-6.4-14.7-15.3-15.3s-15.7,4.5-18,13.3c-1.4,5.6-0.6,11.3-0.7,16.9c-0.1,8,0,16,0,23.9c0,6.3-3.7,10.3-9.1,10.2
	c-5.2-0.1-8.7-4-8.7-10.1c-0.1-19.5,0-38.9,0-58.4c0-7.1,3.1-11,8.6-11.2s8.8,3.5,9.3,10.5C577.5,311.6,577.6,312.1,577.8,312.6z"/>
<path class="st1" d="M281.5,368.9c-1.6,0.3-2.1,1.5-2.8,2.3c-8.4,10-20.7,11.5-32.4,7.8c-10.4-3.3-16.6-13.5-16.6-26
	c-0.1-14.3-0.1-28.6,0-42.9c0-6,3.2-9.4,8.5-9.5c5.5-0.1,9.1,3.5,9.1,9.6c0.1,10.7,0,21.3,0,32c0,2,0,4,0.1,6
	c0.7,10.6,6.8,16.6,16.7,16.6s17-6.6,17.3-16.9c0.4-12.3,0.2-24.6,0.2-37c0-4.8,1.7-8.6,6.5-10c6-1.8,11.2,2.4,11.3,9
	c0.1,20.1,0.1,40.3,0,60.4c0,5.8-3.4,9.7-8.4,9.9s-8.6-3.2-9.4-9C281.7,370.5,281.6,369.7,281.5,368.9z"/>
<path class="st2" d="M0.7,222.4c-1.2-5-0.9-10.3,0.8-15.2c8.5-26.7,28.3-40.3,54.4-46.4c9.5-2.2,19.1-2.4,28.8-2.1
	c12.3,0.3,24.3-0.6,35.5-6.2c1.1-0.5,2.3-1.2,3.3-0.3c1.1,1.1-0.3,2.1-0.8,3c-3,4.4-5.5,9.1-7.3,14.1c-0.9,2.8-3.4,3.5-5.5,4.7
	c-21.7,11.2-44.8,18.2-68.5,23.7c-8.3,1.9-16.4,4.3-23.9,8.4C10.3,209.8,4.5,215.4,0.7,222.4z"/>
<path class="st1" d="M390.2,146.5c-3.5,0.3-7.1,0.1-10.4,1c-6.4,1.7-10.7-1.4-15-5.1c-1.3-1.1-1.1-1.8-0.4-2.9
	c1.3-2.1,2.6-4.3,3.8-6.4c5.9-10.4,5.9-10.5,17.9-9c7.3,0.9,14.5,1.9,21.8,2.8c7.8,1,13.9,10.8,10.7,18
	c-7.4,17.3-16.3,33.9-26.4,49.8c-4.5,6.9-13.2,9.1-20.3,13c-1.5,0.8-2.3-0.9-2.9-2c-2.2-4.7-3-9.9-2.4-15.1
	c0.5-3.6,5.8-6.5,10.3-5.7c5.9,1,7.6-0.4,7.7-6.5c0-2.5,1.2-4.5,2.4-6.4c4.2-6.8,8.6-13.5,12.8-20.2c2.7-4.4,2.1-5.3-3.1-5.4
	c-1.2,0-2.3,0-3.5,0.1c-1,0-2,0.1-3,0.2L390.2,146.5z"/>
<path class="st3" d="M665.5,318.2c7.5-10.3,17-17,30.1-16.9c9.3,0,18.2,3.6,24.8,10.1c14.8,14.2,16,40.4,2.5,56
	c-5,5.8-11.2,10.1-18.7,11.7c-7.2,1.7-14.7,1.3-21.6-1.2c-7.2-2.8-12.3-8.1-18.2-13.4c0,2.9,0,5.8,0,8.8c0,2.7,0.3,5.9-3.7,5.7
	c-3.4-0.1-3.5-2.9-3.4-5.6c0-8.7,0-17.3,0-26c0-19.6,0-39.3,0-58.9c0-1.3,0-2.7,0-4c0.1-2.1,1.3-3.5,3.4-3.5c2.4,0,3.4,1.5,3.5,3.9
	c0,9.2,0.1,18.3,0.2,27.5c0,1.8,0,3.6,0,5.3L665.5,318.2z M724.5,340.7c-0.1-19-12.6-32.6-29.8-32.5S664,322.7,664,341
	s13.8,32.5,31,32.4C712.5,373.4,724.6,359.9,724.5,340.7z"/>
<path class="st3" d="M806,366.3c-12.6,15.1-29.7,16-42.5,11.3c-10.5-3.9-15.7-11.7-15.5-22c0.2-9.8,5.9-17.4,16.2-21
	c12.4-4.4,25-3.2,37.4-0.5c3.8,0.8,4.5,0.1,4.4-3.5c-0.4-12.6-8.3-20.9-21.4-21.8c-8-0.6-16,0.8-23.3,4.1c-2.4,1-5,2.3-6.3-1
	s1.5-4.3,3.8-5.3c10-4.1,20.4-5.9,31.2-3.9c13.5,2.4,22.4,12,22.8,25.7c0.4,15.3,0.1,30.6,0.2,45.9c0,2.4-0.5,4.5-3.3,4.7
	c-3.1,0.2-3.8-2.1-3.8-4.7C806,371.9,806,369.7,806,366.3z M786,338.3c-8.8-0.2-14.8,0-20.4,2.7c-6,2.8-9.7,7.4-9.9,14.3
	c-0.2,7.1,3,12.2,9.2,15.3c10.4,5.1,20.7,3.8,30.5-1.9c9.1-5.3,11.6-13.9,10.9-23.9c-0.2-2.5-1-3.5-3.3-4
	C796.3,339.4,789.8,338.3,786,338.3L786,338.3z"/>
<path class="st3" d="M956.7,341.8c-5.8,5.7-11.4,11.2-17,16.6c-1.5,1.4-1.7,3.1-1.7,5c0,3.8,0,7.7,0,11.5c0,2.4-1,3.8-3.5,3.8
	s-3.5-1.5-3.5-3.9c0-0.7,0-1.3,0-2c0-28.5,0-56.9,0-85.4c-0.1-1.2,0-2.3,0.1-3.5c0.1-1.8,1.6-3.1,3.4-3.1c1.7-0.2,3.3,1.1,3.4,2.9
	c0,0.2,0,0.4,0,0.6c0.1,2.8,0.2,5.7,0.2,8.5c0,17.5,0,35,0,52.4v4.9c2.4-0.3,3.1-1.9,4.2-3c12.9-13.2,25.7-26.5,38.5-39.8
	c0.9-1,1.9-1.9,2.8-2.9c1.7-1.8,3.7-2.7,5.7-0.9c2.2,2,0.9,3.9-0.8,5.6c-5.1,5.2-10.3,10.4-15.4,15.7c-3.7,3.8-9.9,7.4-10.4,11.6
	c-0.5,4.6,5.9,8.7,9.2,12.9c5.9,7.5,11.9,14.8,17.9,22.1c1.7,2,3.4,4.5,1.1,6.5c-2.5,2.2-4.8,0.3-6.7-2
	C975.1,364.5,965.8,353.2,956.7,341.8z"/>
<path class="st3" d="M845.7,314.9c8.2-10.3,18.5-14.7,31.3-13.4c14.6,1.5,25.2,11.8,25.7,26.5c0.6,15.5,0.2,30.9,0.3,46.4
	c0,2.4-0.5,4.4-3.5,4.3c-3.2-0.1-3.6-2.3-3.6-4.8c0-12.8,0-25.6,0-38.4c0.1-2.5-0.1-5-0.4-7.5c-2.1-13.2-11.5-20.8-24.8-20.2
	c-13.6,0.6-24.4,10.9-24.8,24.5c-0.4,12.6-0.1,25.3-0.2,37.9c0,1.3,0,2.7,0,4c0,2.4-0.6,4.4-3.5,4.4s-3.7-1.7-3.7-4.2
	c0-0.7,0-1.3,0-2v-63.4c0-0.8,0-1.7,0-2.5c0.1-2.2,0.9-4,3.4-4c2.8,0,3.7,1.9,3.7,4.3C845.8,309.6,845.7,312.2,845.7,314.9z"/>
<path class="st1" d="M435.6,340.4c0,10,0,19.9,0,29.9c0,6.2-2.9,9.4-8.3,9.6c-5.7,0.2-9.4-3-9.4-9.2c-0.1-20.3-0.1-40.5,0-60.8
	c0-5.8,3.9-9.4,8.9-9.3c5.3,0,8.7,3.8,8.8,9.9C435.7,320.5,435.6,330.4,435.6,340.4z"/>
<path class="st1" d="M98.2,307.8c-2,0.3-3.2-1.4-2-4.9c1.1-3.3,2.4-6.5,3.5-9.9c1.8-5.3,4.6-9,11-8.7c3.3,0.2,5.6-1.8,6.2-5.2
	c1.9-10.5,7.7-17.3,18.3-20.1c3.3-0.9,6.3-3,9.4-4.5c0.9-0.4,1.8-1.3,2.7-0.5s0.3,1.8-0.1,2.7c-6,11.9-11,24.4-19,34.9
	C121.3,300.5,112,306.9,98.2,307.8z"/>
</svg>
